<svg width="62" height="70" viewBox="0 0 62 70" fill="none" xmlns="http://www.w3.org/2000/svg">
<path d="M38.4148 60.1475C37.7627 60.1143 37.1345 59.8914 36.6072 59.5064C36.0799 59.1213 35.6765 58.5907 35.4463 57.9797C34.381 55.5538 35.3763 53.0677 36.3367 50.6614C36.4745 50.3191 36.6101 49.98 36.737 49.6475C37.6229 47.3178 37.4118 45.3917 37.1438 42.9538C37.0826 42.3992 36.9907 41.86 36.8923 41.2923C36.5573 39.8898 36.4722 38.4392 36.6407 37.007C37.0707 35.6861 37.8375 34.5001 38.8655 33.5659C39.8936 32.6316 41.1473 31.9814 42.5032 31.6794C42.8635 31.6084 43.2297 31.5717 43.597 31.57C44.4756 31.5858 45.3362 31.8229 46.099 32.2593C46.8617 32.6958 47.5022 33.3175 47.961 34.067C52.9507 41.2956 48.836 50.4503 45.9343 55.2628C44.2521 58.053 41.1306 60.1563 38.6718 60.1563C38.5843 60.1563 38.499 60.1563 38.4148 60.1475Z" fill="#37B874"/>
<path d="M22.5631 60.1562C20.1044 60.1562 16.985 58.053 15.3039 55.265C12.4054 50.4525 8.28748 41.2978 13.2772 34.0692C13.7361 33.3195 14.3767 32.6977 15.1397 32.2612C15.9027 31.8248 16.7635 31.5878 17.6423 31.5722C18.0096 31.5738 18.3758 31.6104 18.7361 31.6815C20.092 31.9836 21.3457 32.6338 22.3737 33.568C23.4018 34.5023 24.1686 35.6883 24.5986 37.0092C24.7671 38.4417 24.6819 39.8927 24.347 41.2956C24.2486 41.8633 24.1567 42.4047 24.1042 42.8805C23.8319 45.36 23.6164 47.32 24.5023 49.6486C24.6292 49.9767 24.7648 50.3212 24.9026 50.6658C25.8629 53.072 26.8583 55.5559 25.7929 57.9819C25.5628 58.5929 25.1594 59.1235 24.6321 59.5085C24.1048 59.8936 23.4766 60.1164 22.8245 60.1497C22.7359 60.1562 22.6495 60.1562 22.5631 60.1562Z" fill="#37B874"/>
<path d="M15.6331 12.6109C19.9664 9.39342 25.2202 7.65616 30.6174 7.65616C36.0146 7.65616 41.2685 9.39342 45.6018 12.6109L38.8206 19.8844C36.3585 18.353 33.5169 17.5413 30.6174 17.5413C27.718 17.5413 24.8764 18.353 22.4143 19.8844L15.6331 12.6109Z" fill="#37B874"/>
<path d="M42.2954 30.6053C40.7301 30.9464 39.2833 31.6964 38.1024 32.7789C36.9215 33.8614 36.0488 35.2377 35.5732 36.7675C35.3657 38.3394 35.4476 39.9359 35.8149 41.4783C35.909 42.0251 35.9976 42.5414 36.0566 43.0741C36.318 45.4551 36.5073 47.1745 35.7143 49.257C35.5896 49.5851 35.4573 49.9133 35.3216 50.2556C34.3252 52.7494 33.1954 55.5756 34.4466 58.4194C34.7574 59.214 35.2903 59.9025 35.9817 60.4025C36.6731 60.9025 37.4939 61.1929 38.3459 61.2391C38.4552 61.2467 38.5646 61.25 38.674 61.25C41.5079 61.25 44.974 58.9772 46.8695 55.8294C49.9046 50.7916 54.1976 41.183 48.8601 33.448C48.1899 32.3576 47.2005 31.4999 46.026 30.9914C44.8516 30.4828 43.5491 30.348 42.2954 30.6053V30.6053ZM44.9948 54.7006C43.4635 57.2348 40.552 59.1762 38.4837 59.0559C38.0318 59.0354 37.5965 58.88 37.2337 58.6098C36.8709 58.3396 36.5973 57.967 36.4482 57.54C35.5666 55.5352 36.4745 53.2634 37.3527 51.0672C37.4927 50.7183 37.6295 50.3737 37.7585 50.0347C38.7429 47.46 38.5034 45.3173 38.2223 42.7591C38.1676 42.2636 38.0724 41.7014 37.9718 41.1097C37.6693 39.8457 37.5798 38.54 37.7071 37.2466C38.0878 36.1322 38.7478 35.134 39.624 34.3472C40.5001 33.5604 41.5634 33.0114 42.7121 32.7523C43.0029 32.6954 43.2984 32.6661 43.5948 32.6648C44.2966 32.6794 44.983 32.8732 45.5889 33.2277C46.1948 33.5822 46.7 34.0858 47.0565 34.6905C51.6984 41.4148 47.7565 50.1145 44.9948 54.7006V54.7006Z" fill="#2C2C2C"/>
<path d="M25.5206 49.2571C24.7276 47.1789 24.9169 45.4552 25.1925 42.9975C25.2428 42.5414 25.3314 42.023 25.4255 41.4783C25.7927 39.9359 25.8747 38.3394 25.6672 36.7675C25.1916 35.2378 24.3188 33.8615 23.138 32.779C21.9571 31.6964 20.5102 30.9464 18.945 30.6053C17.6915 30.3486 16.3894 30.4838 15.2154 30.9926C14.0414 31.5013 13.0523 32.3589 12.3825 33.4491C7.0428 41.1841 11.338 50.7927 14.3731 55.8305C16.2631 58.9772 19.7292 61.25 22.5631 61.25C22.6725 61.25 22.7819 61.25 22.8912 61.2391C23.7431 61.1927 24.5635 60.9022 25.2548 60.4022C25.946 59.9022 26.4787 59.2139 26.7894 58.4194C28.0384 55.5756 26.9086 52.7494 25.9144 50.2556C25.7776 49.9177 25.6453 49.5841 25.5206 49.2571ZM24.7867 57.54C24.6376 57.9671 24.364 58.3397 24.0012 58.6098C23.6385 58.88 23.2031 59.0354 22.7512 59.056C20.6731 59.1905 17.7659 57.2349 16.2401 54.7006C13.4784 50.1146 9.53655 41.4149 14.1784 34.685C14.6052 33.9447 15.2554 33.3584 16.0358 33.0102C16.8162 32.6621 17.6868 32.5699 18.5228 32.7469C19.6716 33.0059 20.7348 33.555 21.611 34.3418C22.4872 35.1286 23.1471 36.1268 23.5278 37.2411C23.6551 38.5346 23.5656 39.8402 23.2631 41.1042C23.1625 41.696 23.0673 42.2581 23.0039 42.8302C22.7316 45.3119 22.4964 47.4546 23.4764 50.0292C23.6055 50.3683 23.7422 50.7128 23.8822 51.0617C24.7605 53.2656 25.6683 55.5352 24.7867 57.54Z" fill="#2C2C2C"/>
<path d="M57.4668 4.57734C56.1338 3.13598 54.5175 1.98543 52.7192 1.19778C50.9209 0.410133 48.9793 0.0023563 47.016 2.00485e-10H14.2188C12.2553 -1.04265e-05 10.313 0.406676 8.51437 1.19443C6.71575 1.98219 5.09979 3.13394 3.76831 4.57711C2.43683 6.02028 1.4187 7.72359 0.778062 9.57971C0.137425 11.4358 -0.111826 13.4045 0.0460143 15.3617L3.56023 58.9356C3.81764 61.9438 5.19072 64.7469 7.40967 66.7943C9.62861 68.8416 12.533 69.9851 15.5521 70H45.6827C48.7018 69.9851 51.6062 68.8416 53.8252 66.7943C56.0441 64.7469 57.4172 61.9438 57.6746 58.9356L61.1888 15.3617C61.3442 13.4048 61.0938 11.4368 60.4534 9.58107C59.8129 7.72536 58.7961 6.02188 57.4668 4.57734V4.57734ZM59.0079 15.1867L55.4937 58.7595C55.2832 61.2207 54.1599 63.5142 52.3445 65.1894C50.5291 66.8645 48.1529 67.8002 45.6827 67.8125H15.5521C13.082 67.8002 10.7057 66.8645 8.89032 65.1894C7.07492 63.5142 5.95163 61.2207 5.74117 58.7595L2.22695 15.1856C2.09344 13.5296 2.30435 11.8638 2.84642 10.2934C3.38848 8.72286 4.24994 7.28165 5.37652 6.06054C6.50309 4.83943 7.87037 3.86489 9.3922 3.19831C10.914 2.53173 12.5574 2.18756 14.2188 2.1875H47.016C48.6774 2.18756 50.3208 2.53173 51.8426 3.19831C53.3645 3.86489 54.7317 4.83943 55.8583 6.06054C56.9849 7.28165 57.8464 8.72286 58.3884 10.2934C58.9305 11.8638 59.1414 13.5296 59.0079 15.1856V15.1867Z" fill="#2C2C2C"/>
<path d="M38.8205 20.9781C38.9705 20.9781 39.1189 20.9472 39.2564 20.8873C39.394 20.8275 39.5177 20.74 39.62 20.6303L46.4013 13.3569C46.5062 13.2443 46.5862 13.1107 46.636 12.965C46.6858 12.8194 46.7043 12.6648 46.6903 12.5115C46.6762 12.3582 46.63 12.2096 46.5545 12.0754C46.4791 11.9411 46.3762 11.8244 46.2525 11.7327C41.7307 8.37522 36.2483 6.56241 30.6163 6.56241C24.9843 6.56241 19.5018 8.37522 14.98 11.7327C14.8564 11.8244 14.7534 11.9411 14.678 12.0754C14.6026 12.2096 14.5563 12.3582 14.5423 12.5115C14.5282 12.6648 14.5467 12.8194 14.5965 12.965C14.6463 13.1107 14.7263 13.2443 14.8313 13.3569L21.6125 20.6303C21.7867 20.8171 22.0206 20.9371 22.274 20.9695C22.5273 21.0018 22.7839 20.9445 22.9994 20.8075C25.2859 19.3878 27.9238 18.6355 30.6152 18.6355C33.3066 18.6355 35.9444 19.3878 38.231 20.8075C38.4072 20.9195 38.6117 20.9787 38.8205 20.9781V20.9781ZM22.6122 18.4931L17.2878 12.7827C21.236 10.1531 25.8737 8.75003 30.6174 8.75003C35.361 8.75003 39.9988 10.1531 43.9469 12.7827L38.6225 18.4931C36.5001 17.3039 34.1388 16.6036 31.7111 16.4435V13.125C31.7111 12.8349 31.5959 12.5567 31.3908 12.3516C31.1856 12.1465 30.9074 12.0313 30.6174 12.0313C30.3273 12.0313 30.0491 12.1465 29.844 12.3516C29.6388 12.5567 29.5236 12.8349 29.5236 13.125V16.4435C27.0959 16.6036 24.7347 17.3039 22.6122 18.4931V18.4931Z" fill="#2C2C2C"/>
</svg>
