<svg width="260" height="250" viewBox="0 0 260 250" fill="none" xmlns="http://www.w3.org/2000/svg">
<path d="M253.254 202.704L242.912 187.956L259.85 187.598L253.254 202.704ZM247.554 190.301L252.774 197.736L256.096 190.122L247.554 190.301Z" fill="#37B874"/>
<path d="M16.715 218.078L14.4268 217.231L17.904 207.834L26.886 210.627L26.2997 191.401L42.4642 205.456L40.86 207.305L28.9137 196.906L29.4349 213.982L19.3942 210.855L16.715 218.078Z" fill="#37B874"/>
<path d="M180.599 51.3029C179.391 51.3029 178.211 50.9447 177.206 50.2736C176.202 49.6025 175.419 48.6486 174.957 47.5326C174.495 46.4166 174.374 45.1886 174.609 44.0039C174.845 42.8191 175.427 41.7309 176.281 40.8767C177.135 40.0226 178.223 39.4409 179.408 39.2052C180.593 38.9696 181.821 39.0905 182.937 39.5528C184.053 40.0151 185.007 40.7979 185.678 41.8022C186.349 42.8066 186.707 43.9874 186.707 45.1954C186.705 46.8145 186.061 48.3667 184.916 49.5117C183.771 50.6566 182.219 51.3007 180.599 51.3029V51.3029ZM180.599 41.5309C179.875 41.5309 179.166 41.7458 178.564 42.1485C177.961 42.5511 177.491 43.1234 177.214 43.793C176.937 44.4626 176.864 45.1995 177.005 45.9103C177.147 46.6211 177.496 47.2741 178.008 47.7866C178.521 48.2991 179.174 48.6481 179.885 48.7895C180.595 48.9309 181.332 48.8583 182.002 48.5809C182.671 48.3036 183.244 47.8339 183.646 47.2313C184.049 46.6286 184.264 45.9202 184.264 45.1954C184.262 44.2242 183.875 43.2933 183.188 42.6066C182.501 41.9198 181.571 41.533 180.599 41.5309V41.5309Z" fill="#37B874"/>
<path d="M87.8589 23.3026L78.9683 32.1932L80.6957 33.9207L89.5864 25.03L87.8589 23.3026Z" fill="#37B874"/>
<path d="M9.11613 24.6388L7.38867 26.3662L15.2544 34.2319L16.9818 32.5045L9.11613 24.6388Z" fill="#37B874"/>
<path d="M57.0733 10.5863H37.847C36.9413 10.5863 36.0726 10.2271 35.4314 9.58745C34.7902 8.9478 34.4289 8.07995 34.4268 7.17427V3.41205C34.4289 2.50637 34.7902 1.63852 35.4314 0.998871C36.0726 0.35922 36.9413 -2.56712e-06 37.847 0L57.0733 0C57.9776 0.00215048 58.8442 0.362324 59.4836 1.00174C60.1231 1.64116 60.4832 2.50778 60.4854 3.41205V7.17427C60.4832 8.07854 60.1231 8.94516 59.4836 9.58458C58.8442 10.224 57.9776 10.5842 57.0733 10.5863ZM37.847 2.443C37.719 2.44192 37.5921 2.46619 37.4736 2.51441C37.3551 2.56263 37.2473 2.63384 37.1565 2.72393C37.0656 2.81402 36.9935 2.92121 36.9443 3.03932C36.8951 3.15743 36.8698 3.28411 36.8698 3.41205V7.17427C36.8698 7.30221 36.8951 7.42889 36.9443 7.547C36.9935 7.6651 37.0656 7.7723 37.1565 7.86239C37.2473 7.95248 37.3551 8.02369 37.4736 8.07191C37.5921 8.12013 37.719 8.1444 37.847 8.14332H57.0733C57.3303 8.14332 57.5768 8.04123 57.7586 7.85949C57.9403 7.67776 58.0424 7.43128 58.0424 7.17427V3.41205C58.0424 3.28479 58.0173 3.15878 57.9686 3.04121C57.9199 2.92364 57.8485 2.81681 57.7586 2.72683C57.6686 2.63684 57.5618 2.56546 57.4442 2.51676C57.3266 2.46806 57.2006 2.443 57.0733 2.443H37.847Z" fill="#37B874"/>
<path d="M33.4626 48.3035L31.7351 50.031L44.8868 63.1827L46.6143 61.4553L33.4626 48.3035Z" fill="#2C2C2C"/>
<path d="M48.7102 96.4251C48.2868 96.4251 47.8959 96.4251 47.448 96.4251L47.5376 93.9821C47.9366 93.9821 48.3519 93.9821 48.7347 93.9821C49.378 93.9821 50.0295 93.9821 50.6728 93.9251L50.8275 96.3681C50.119 96.4007 49.4106 96.4251 48.7102 96.4251ZM44.0767 96.0994C42.9692 95.9365 41.8536 95.7248 40.7624 95.456L41.3487 93.0863C42.3584 93.3306 43.3926 93.5342 44.4187 93.6808L44.0767 96.0994ZM54.1826 95.9772L53.7835 93.5342C54.6956 93.3795 55.6158 93.1841 56.5115 92.9398L57.1386 95.3095C56.1858 95.5945 55.1679 95.8062 54.1826 95.9772V95.9772ZM37.5295 94.4626C36.4662 94.0864 35.4225 93.657 34.4024 93.1759L35.4529 90.9691C36.3894 91.4088 37.3666 91.7834 38.3438 92.1661L37.5295 94.4626ZM31.4301 91.5798C30.4617 91.003 29.5265 90.3722 28.6288 89.6906L30.0946 87.7362C30.929 88.3653 31.7961 88.9497 32.6923 89.487L31.4301 91.5798ZM26.0311 87.5082C25.2014 86.7387 24.4156 85.923 23.6777 85.0652L25.5262 83.4365C26.2021 84.2508 26.935 84.9674 27.7005 85.6841L26.0311 87.5082ZM21.6011 82.3941C20.9566 81.4656 20.3666 80.5003 19.834 79.5033L21.9839 78.3795C22.4751 79.2977 23.0189 80.1868 23.6125 81.0424L21.6011 82.3941ZM18.3926 76.4658C17.9694 75.4286 17.6051 74.3682 17.3014 73.2899L19.6549 72.6303C19.9348 73.6331 20.2692 74.6199 20.6565 75.5863L18.3926 76.4658ZM79.5897 70.5863L77.1874 70.1384C77.3834 69.1128 77.522 68.077 77.6027 67.0358L80.0457 67.2313C79.9555 68.3572 79.8032 69.4772 79.5897 70.5863ZM16.5685 69.9512C16.3798 68.8379 16.2521 67.7152 16.1858 66.588L18.6288 66.4414C18.6887 67.4812 18.8056 68.517 18.979 69.544L16.5685 69.9512ZM77.6842 63.9169C77.6571 62.8735 77.5728 61.8323 77.4317 60.7981L79.8747 60.4723C80.0212 61.5936 80.1109 62.7215 80.1435 63.8518L77.6842 63.9169ZM18.6044 63.3143L16.1614 63.2003C16.214 62.0739 16.3282 60.9511 16.5034 59.8371L18.9464 60.2036C18.7796 61.234 18.6654 62.2723 18.6044 63.3143V63.3143ZM76.8536 57.728L76.707 57.1498C76.4953 56.3355 76.2428 55.5212 75.9578 54.7069L78.2624 53.8925C78.5637 54.7069 78.8405 55.627 79.0767 56.5147C79.1337 56.7183 79.1907 56.93 79.2396 57.1336L76.8536 57.728ZM19.5409 57.1498L17.1793 56.5228C17.466 55.4195 17.8112 54.3321 18.2135 53.2655L20.4936 54.1368C20.1221 55.1233 19.804 56.1291 19.5409 57.1498ZM74.7526 51.8485C74.3137 50.9081 73.8244 49.992 73.2868 49.1042L75.3552 47.8176C75.9503 48.7761 76.4939 49.7655 76.9839 50.7818L74.7526 51.8485ZM21.821 51.3192L19.6386 50.2117C20.1538 49.2069 20.7192 48.2284 21.3324 47.2801L23.3845 48.6075C22.8013 49.4763 22.2658 50.3761 21.7803 51.3029L21.821 51.3192ZM71.4953 46.5391C70.8554 45.7146 70.1703 44.9262 69.4431 44.1775L71.2021 42.4837C71.9883 43.2957 72.7304 44.1493 73.4252 45.0407L71.4953 46.5391ZM25.2086 46.0749L23.2786 44.544C23.988 43.6656 24.7437 42.8256 25.5425 42.0277L27.2689 43.7541C26.536 44.487 25.8356 45.2687 25.176 46.0749H25.2086ZM67.1549 42.044C66.3548 41.3764 65.5203 40.7513 64.6549 40.171L65.9578 38.1433C66.8861 38.7704 67.7982 39.4544 68.6614 40.171L67.1549 42.044ZM29.6304 41.6694L28.0995 39.7639C28.9773 39.0545 29.8935 38.3939 30.8438 37.785L32.163 39.8371C31.2753 40.4009 30.419 41.0125 29.5979 41.6694H29.6304ZM61.9757 38.5668C61.052 38.0778 60.1034 37.6375 59.1337 37.2476L60.0132 35.0163C61.0603 35.4354 62.085 35.9083 63.0832 36.4332L61.9757 38.5668ZM34.8503 38.2736L33.751 36.0912C34.7618 35.5863 35.7973 35.1324 36.8536 34.7313L37.7168 37.0196C36.7401 37.3873 35.7833 37.8059 34.8503 38.2736V38.2736ZM56.1858 36.2378C55.183 35.9578 54.1664 35.7295 53.1402 35.5538L53.5474 33.1108C54.6624 33.2996 55.7661 33.5497 56.8536 33.8599L56.1858 36.2378ZM40.7135 36.0912L40.0946 33.7297C41.187 33.4455 42.2933 33.2172 43.4089 33.0456L43.7754 35.4886C42.7451 35.637 41.7232 35.8382 40.7135 36.0912V36.0912ZM49.9969 35.1873C48.9553 35.1303 47.9114 35.1303 46.8698 35.1873L46.764 32.7443C47.8924 32.6832 49.0232 32.6832 50.1516 32.7443L49.9969 35.1873Z" fill="#2C2C2C"/>
<path d="M83.0397 16.8781L81.3123 18.6056L94.2049 31.4982L95.9323 29.7707L83.0397 16.8781Z" fill="#37B874"/>
<path d="M13.1517 17.3925L0 30.5442L1.72746 32.2716L14.8792 19.1199L13.1517 17.3925Z" fill="#37B874"/>
<path d="M47.8634 69.2183C46.9775 69.2183 46.1116 68.9556 45.375 68.4635C44.6385 67.9713 44.0644 67.2718 43.7255 66.4534C43.3865 65.635 43.2978 64.7345 43.4706 63.8657C43.6434 62.9969 44.07 62.1988 44.6963 61.5724C45.3227 60.9461 46.1208 60.5195 46.9896 60.3467C47.8584 60.1739 48.7589 60.2626 49.5773 60.6016C50.3957 60.9405 51.0952 61.5146 51.5874 62.2511C52.0795 62.9877 52.3422 63.8536 52.3422 64.7394C52.34 65.9266 51.8675 67.0646 51.028 67.9041C50.1885 68.7436 49.0505 69.2161 47.8634 69.2183V69.2183ZM47.8634 62.7036C47.4607 62.7036 47.0671 62.823 46.7323 63.0467C46.3975 63.2704 46.1366 63.5884 45.9825 63.9604C45.8284 64.3324 45.7881 64.7417 45.8666 65.1366C45.9452 65.5315 46.1391 65.8943 46.4238 66.179C46.7085 66.4637 47.0713 66.6576 47.4662 66.7362C47.8611 66.8147 48.2704 66.7744 48.6424 66.6203C49.0144 66.4662 49.3324 66.2053 49.5561 65.8705C49.7798 65.5357 49.8992 65.1421 49.8992 64.7394C49.897 64.2002 49.6819 63.6836 49.3005 63.3023C48.9192 62.9209 48.4026 62.7058 47.8634 62.7036V62.7036Z" fill="#2C2C2C"/>
<path d="M47.8552 110.147C38.8436 110.148 30.0338 107.477 22.5402 102.472C15.0465 97.4666 9.20543 90.3514 5.75571 82.0262C2.30599 73.701 1.40255 64.5397 3.15964 55.701C4.91674 46.8624 9.25545 38.7433 15.6271 32.3705C21.9987 25.9977 30.117 21.6576 38.9554 19.8989C47.7938 18.1402 56.9552 19.042 65.281 22.4903C73.6068 25.9385 80.7231 31.7783 85.7298 39.2711C90.7366 46.7639 93.409 55.5731 93.409 64.5847C93.4089 67.0752 93.2074 69.5616 92.8064 72.0196L90.3878 71.6613C91.9017 62.4553 90.3847 53.0067 86.0653 44.7372C81.7459 36.4677 74.8577 29.8247 66.4371 25.8078C58.0165 21.7908 48.5191 20.6173 39.374 22.4638C30.2289 24.3103 21.9309 29.0768 15.7285 36.0462C9.52617 43.0156 5.75502 51.8109 4.98255 61.1085C4.21007 70.406 6.47806 79.703 11.4452 87.6004C16.4124 95.4978 23.8101 101.568 32.525 104.899C41.24 108.229 50.8009 108.639 59.7689 106.067L60.4448 108.412C56.3498 109.575 52.1121 110.159 47.8552 110.147V110.147Z" fill="#37B874"/>
<path d="M45.8275 9.77197H43.3845V17.101H45.8275V9.77197Z" fill="#37B874"/>
<path d="M51.5277 9.77197H49.0847V17.101H51.5277V9.77197Z" fill="#37B874"/>
<path d="M132.244 170.269L129.858 179.308L134.02 187.695L135.029 196.409L111.039 178.673C111.039 178.673 114.842 172.06 122.44 173.787L124.883 167.63C50.2086 166.718 73.0099 237.785 73.0099 237.785H199.02C182.847 207.932 149.533 180.782 132.244 170.269ZM105.705 218.526C103.251 218.526 100.851 217.798 98.8105 216.435C96.7696 215.071 95.1789 213.133 94.2396 210.865C93.3003 208.597 93.0545 206.102 93.5334 203.694C94.0123 201.287 95.1942 199.076 96.9299 197.34C98.6655 195.605 100.877 194.423 103.284 193.944C105.692 193.465 108.187 193.711 110.455 194.65C112.722 195.589 114.661 197.18 116.024 199.221C117.388 201.262 118.116 203.661 118.116 206.116C118.116 209.407 116.808 212.564 114.481 214.891C112.153 217.219 108.997 218.526 105.705 218.526Z" fill="#37B874"/>
<path d="M199.802 206.84C199.802 206.84 217.285 179.739 217.277 137.508C217.277 111.669 205.811 79.7884 205.811 79.7884L214.052 73.9496C214.052 73.9496 235.331 119.552 229.663 154.275C225.591 179.096 219.191 206.059 216.845 206.84H199.802Z" fill="#37B874"/>
<path d="M192.481 70.9691C205.632 61.3355 208.564 33.1271 208.564 33.1271L221.723 41.4821C221.723 41.4821 208.686 66.6287 192.481 70.9691Z" fill="#37B874"/>
<path d="M175.339 206.84H224.606C233.01 206.84 240.192 213.355 240.477 221.783C240.548 223.859 240.201 225.928 239.455 227.867C238.709 229.806 237.581 231.574 236.137 233.068C234.693 234.561 232.963 235.748 231.051 236.559C229.138 237.369 227.082 237.786 225.005 237.785H193.246L175.339 206.84Z" fill="#37B874"/>
<path d="M256.74 250H35.2412V236.971H256.74V250ZM37.6842 247.557H254.297V239.414H37.6842V247.557Z" fill="#2C2C2C"/>
<path d="M66.3406 238.868C60.5165 230.439 57.3383 220.465 57.2119 210.22C57.227 197.346 62.3478 185.004 71.4511 175.9C80.5543 166.797 92.8966 161.676 105.771 161.661C109.053 161.663 112.326 161.993 115.543 162.647L115.054 165.041C111.993 164.419 108.878 164.105 105.754 164.104C93.5283 164.119 81.8073 168.983 73.1622 177.628C64.5171 186.273 59.6537 197.994 59.6386 210.22C59.802 219.961 62.8265 229.44 68.3357 237.476L66.3406 238.868Z" fill="#2C2C2C"/>
<path d="M197.945 238.746C175.958 197.826 135.038 174.349 134.622 174.112L135.828 171.987C136.243 172.223 177.741 196.034 200.095 237.59L197.945 238.746Z" fill="#2C2C2C"/>
<path d="M225.021 239.414H207.92V236.971H225.021C226.934 236.972 228.828 236.588 230.589 235.841C232.35 235.094 233.943 234.001 235.272 232.625C236.601 231.249 237.64 229.62 238.326 227.834C239.012 226.049 239.331 224.143 239.264 222.231C239.011 214.642 232.44 208.469 224.606 208.469H187.521V206.026H224.622C233.743 206.026 241.414 213.257 241.723 222.15C241.8 224.39 241.424 226.623 240.619 228.715C239.814 230.808 238.596 232.716 237.037 234.327C235.478 235.939 233.611 237.219 231.547 238.093C229.482 238.967 227.263 239.416 225.021 239.414Z" fill="#2C2C2C"/>
<path d="M105.73 129.479H79.3453C76.4858 129.503 73.7198 128.461 71.5866 126.556C69.4533 124.652 68.1056 122.021 67.8062 119.178C67.6505 117.423 67.9072 115.656 68.556 114.019C69.2047 112.381 70.2275 110.918 71.5425 109.746C72.8576 108.574 74.4285 107.726 76.1297 107.27C77.831 106.813 79.6154 106.761 81.3404 107.117L80.8437 109.503C79.492 109.231 78.0953 109.277 76.7647 109.639C75.4341 110.001 74.2062 110.668 73.1785 111.587C72.1509 112.507 71.3517 113.653 70.8446 114.935C70.3376 116.218 70.1365 117.6 70.2574 118.974C70.5018 121.206 71.5673 123.267 73.2469 124.757C74.9265 126.247 77.1002 127.059 79.3453 127.036H105.73C106.374 127.035 107.011 126.895 107.596 126.627C108.182 126.359 108.704 125.968 109.125 125.48L110.974 127.109C110.321 127.857 109.514 128.455 108.609 128.864C107.705 129.273 106.723 129.483 105.73 129.479V129.479Z" fill="#2C2C2C"/>
<path d="M106.088 220.684C103.189 220.684 100.355 219.824 97.9446 218.214C95.5341 216.603 93.6554 214.314 92.546 211.635C91.4365 208.957 91.1462 206.01 91.7118 203.166C92.2774 200.323 93.6735 197.711 95.7234 195.661C97.7734 193.611 100.385 192.215 103.229 191.65C106.072 191.084 109.019 191.374 111.698 192.484C114.376 193.593 116.665 195.472 118.276 197.882C119.886 200.293 120.746 203.127 120.746 206.026C120.746 209.914 119.202 213.642 116.453 216.391C113.704 219.14 109.976 220.684 106.088 220.684ZM106.088 193.811C103.672 193.811 101.311 194.527 99.3019 195.87C97.2931 197.212 95.7275 199.12 94.803 201.352C93.8785 203.584 93.6366 206.04 94.1079 208.409C94.5792 210.779 95.7426 212.955 97.4509 214.663C99.1592 216.372 101.336 217.535 103.705 218.006C106.075 218.478 108.531 218.236 110.763 217.311C112.995 216.387 114.902 214.821 116.245 212.812C117.587 210.804 118.303 208.442 118.303 206.026C118.303 202.786 117.016 199.679 114.725 197.389C112.435 195.098 109.328 193.811 106.088 193.811V193.811Z" fill="#2C2C2C"/>
<path d="M218.433 207.581L216.145 206.718C220.217 195.814 222.969 187.606 224.288 182.288C233.051 146.995 228.71 105.798 212.969 74.7965L215.144 73.689C231.145 105.212 235.559 147.06 226.658 182.891C225.323 188.282 222.554 196.588 218.433 207.581Z" fill="#2C2C2C"/>
<path d="M242.668 170.114L240.225 169.813C240.347 168.754 240.469 167.679 240.583 166.596L243.026 166.857C242.92 167.948 242.798 169.031 242.668 170.114ZM243.36 163.599L240.917 163.379C241.015 162.294 241.104 161.208 241.186 160.122L243.629 160.301C243.547 161.417 243.482 162.508 243.36 163.591V163.599ZM243.849 157.085L241.406 156.938C241.471 155.863 241.528 154.78 241.577 153.681L244.02 153.795C243.971 154.881 243.914 155.969 243.849 157.06V157.085ZM244.15 150.57L241.707 150.497C241.707 149.414 241.772 148.339 241.788 147.239L244.231 147.28C244.215 148.331 244.182 149.422 244.15 150.513V150.57ZM244.264 144.055H241.821V143.339C241.821 142.524 241.821 141.653 241.821 140.814H244.264C244.264 141.629 244.264 142.516 244.264 143.363V144.055ZM241.748 137.541C241.748 136.466 241.682 135.383 241.642 134.283L244.085 134.178C244.125 135.269 244.166 136.36 244.191 137.435L241.748 137.541ZM241.487 131.067C241.422 129.992 241.357 128.917 241.275 127.809L243.718 127.638C243.792 128.73 243.865 129.821 243.922 130.896L241.487 131.067ZM241.023 124.609C240.925 123.534 240.819 122.459 240.713 121.352L243.156 121.099C243.27 122.182 243.376 123.274 243.474 124.357L241.023 124.609ZM240.347 118.176C240.217 117.101 240.078 116.026 239.924 114.967L242.366 114.625C242.521 115.7 242.66 116.792 242.798 117.883L240.347 118.176ZM239.41 111.702C239.239 110.635 239.06 109.568 238.873 108.518L241.275 108.078C241.471 109.153 241.65 110.236 241.829 111.335L239.41 111.702ZM238.27 105.342C238.051 104.275 237.831 103.225 237.594 102.182L239.981 101.645C240.217 102.704 240.445 103.778 240.665 104.853L238.27 105.342ZM236.853 99.0391C236.585 97.9886 236.316 96.9462 236.039 95.9202L238.393 95.2687C238.686 96.3192 238.963 97.3778 239.207 98.4446L236.853 99.0391ZM235.16 92.8339C234.842 91.7997 234.516 90.7817 234.174 89.772L236.487 88.9576C236.837 89.9837 237.171 91.0342 237.497 92.0928L235.16 92.8339Z" fill="#2C2C2C"/>
<path d="M202.489 204.658L200.257 203.656C201.886 200.065 206.772 189.153 209.044 182.125C219.321 149.976 218.27 113.436 206.218 84.4055L208.474 83.469C220.738 113.029 221.821 150.187 211.373 182.875C209.085 190.033 204.117 201.042 202.489 204.658Z" fill="#2C2C2C"/>
<path d="M175.811 90.7572V88.3142C175.925 88.3142 186.894 88.2247 199.858 81.938C211.796 76.1563 227.945 63.7703 237.049 37.6058C237.301 36.8536 237.397 36.0579 237.33 35.2675C237.264 34.477 237.037 33.7084 236.664 33.0086C236.29 32.3088 235.778 31.6926 235.158 31.1977C234.538 30.7027 233.824 30.3395 233.059 30.1302C231.633 29.7516 230.117 29.9244 228.812 30.6142C227.508 31.3039 226.512 32.46 226.023 33.8517C214.557 66.5553 190.249 74.267 180.331 76.0667L179.891 73.6237C189.386 71.8973 212.676 64.495 223.718 33.0048C224.248 31.4812 225.211 30.1457 226.49 29.1626C227.769 28.1795 229.307 27.5917 230.916 27.4714C232.525 27.3511 234.133 27.7037 235.544 28.4857C236.955 29.2677 238.106 30.445 238.857 31.8729C239.385 32.8656 239.702 33.957 239.787 35.0782C239.873 36.1994 239.725 37.3262 239.353 38.3875C229.948 65.4071 213.197 78.2002 200.803 84.1774C187.35 90.6839 176.275 90.7572 175.811 90.7572Z" fill="#2C2C2C"/>
<path d="M84.594 128.313L82.1829 128.707L88.3141 166.272L90.7252 165.878L84.594 128.313Z" fill="#2C2C2C"/>
<path d="M97.0607 128.308L94.6516 128.714L100.441 163.092L102.851 162.686L97.0607 128.308Z" fill="#2C2C2C"/>
<path d="M117.39 188.198L103.868 205.131L105.777 206.655L119.299 189.722L117.39 188.198Z" fill="#2C2C2C"/>
<path d="M103.213 76.9952L110.054 70.1548C110.054 70.1548 115.306 52.7281 124.858 47.3535C131.967 43.3632 133.002 42.4675 135.282 39.8127L144.239 47.5245L146.479 64.2671L142.065 70.2851L137.179 64.2671L127.945 71.4984L133.099 77.7851L127.546 87.2557L114.402 84.544L103.213 76.9952Z" fill="#37B874"/>
<path d="M133.775 19.3973C133.775 19.3973 152.293 12.0683 159.834 14.6986L162.44 20.7002L134.272 28.0292L133.775 19.3973Z" fill="#37B874"/>
<path d="M135.771 30.7167L134.411 28.689C144.183 22.1743 157.986 20.4317 162.359 21.36L161.862 23.7542C158.303 22.9968 145.135 24.4708 135.771 30.7167Z" fill="#2C2C2C"/>
<path d="M147.586 64.8697L145.436 63.6971C146.365 62.0033 145.331 58.2573 144.329 54.6336C142.896 49.4626 141.414 44.1124 144.044 40.7899L145.949 42.3453C144.101 44.6743 145.469 49.6254 146.682 53.9902C147.896 58.3551 149.02 62.3046 147.586 64.8697Z" fill="#2C2C2C"/>
<path d="M123.376 174.577L121.283 173.314C123.498 169.634 124.142 162.728 124.826 155.48C125.811 144.959 126.927 133.119 133.01 126.164C128.384 124.397 122.912 123.306 117.595 122.239C110.127 120.741 103.075 119.324 98.36 116.189C90.0864 110.692 86.7802 105.106 87.6434 98.07C87.834 95.6331 88.3828 93.2377 89.2721 90.9609C92.2932 83.7785 97.2933 79.9348 100.599 77.3859C101.414 76.7426 102.155 76.1889 102.741 75.6677C108.368 70.912 109.362 67.0765 110.608 62.2149C111.589 57.7815 113.304 53.5429 115.681 49.6742C118.678 44.8697 121.666 41.7508 125.111 39.9022C129.125 37.7035 131.267 36.2377 133.49 32.3941C134.305 31.0586 133.759 28.811 133.165 26.4332C132.702 24.8389 132.402 23.2019 132.269 21.5472C132.049 16.7426 133.669 10.3908 137.749 7.8094C143.808 3.98204 151.78 4.72308 157.603 9.64979C164.02 15.0977 164.386 24.3078 162.016 30.627C159.459 37.4022 153.132 44.096 147.798 43.2736C146.906 43.1107 146.049 42.7938 145.266 42.3371C144.133 41.751 143.088 41.008 142.163 40.1302L143.792 38.3469C144.549 39.0717 145.408 39.6833 146.34 40.1628C146.892 40.4986 147.498 40.733 148.132 40.855C151.78 41.425 157.285 36.1319 159.687 29.7638C161.43 25.1628 161.87 16.5146 155.982 11.5146C150.982 7.28009 144.166 6.62862 139.02 9.88595C135.941 11.8322 134.476 17.2964 134.671 21.4495C134.798 22.9357 135.071 24.4059 135.485 25.8387C136.178 28.6074 136.902 31.4739 135.534 33.6563C132.937 38.1514 130.282 39.8289 126.235 42.0521C123.181 43.6807 120.469 46.5716 117.709 51.0097C115.469 54.6691 113.864 58.6805 112.961 62.8745C111.707 67.7605 110.518 72.3208 104.329 77.5325C103.702 78.0944 102.912 78.697 102.073 79.3403C98.8161 81.8729 94.2802 85.3338 91.4871 91.9299C90.6807 93.9991 90.1787 96.1743 89.9968 98.3876C89.2558 104.462 92.1385 109.186 99.6467 114.169C103.963 117.036 110.787 118.404 118.01 119.87C124.093 121.091 130.388 122.353 135.559 124.634L137.261 125.383L135.99 126.588C129.476 132.671 128.295 144.91 127.285 155.708C126.544 163.274 125.876 170.415 123.376 174.577Z" fill="#2C2C2C"/>
<path d="M116.528 97.2312C108.857 97.2312 102.326 94.1286 97.7981 88.2247L99.7362 86.7345C104.687 93.1677 112.334 95.8876 121.283 94.3811L121.691 96.8241C119.984 97.1015 118.257 97.2376 116.528 97.2312Z" fill="#2C2C2C"/>
<path d="M169.972 94.2101C169.579 94.2191 169.186 94.1863 168.8 94.1124C148.564 90.7492 128.759 84.2101 120.982 59.3974L123.311 58.6645C130.29 80.9121 146.699 87.9805 169.207 91.702C169.457 91.7439 169.71 91.7656 169.964 91.7671C171.122 91.7631 172.237 91.3247 173.087 90.5387C173.938 89.7526 174.463 88.676 174.558 87.5218C174.653 86.3675 174.312 85.2196 173.601 84.3048C172.891 83.3901 171.863 82.7751 170.722 82.5814C153.279 79.6824 138.336 75.6759 132.13 55.8958L134.468 55.171C139.753 72.0358 150.958 76.8241 171.112 80.171C172.859 80.4644 174.432 81.4028 175.519 82.8003C176.607 84.1979 177.131 85.9528 176.986 87.7179C176.842 89.483 176.04 91.1296 174.74 92.3318C173.44 93.5341 171.735 94.2044 169.964 94.2101H169.972Z" fill="#2C2C2C"/>
<path d="M133.051 17.9968L129.069 15.0977C128.334 14.5997 127.707 13.9582 127.226 13.2117C126.745 12.4653 126.42 11.6294 126.27 10.7542C126.121 9.87904 126.15 8.98264 126.355 8.11887C126.561 7.25511 126.939 6.4418 127.467 5.72782C127.994 5.01383 128.661 4.41391 129.427 3.96408C130.192 3.51425 131.041 3.22381 131.921 3.11019C132.802 2.99657 133.696 3.06213 134.551 3.30293C135.405 3.54372 136.203 3.95479 136.894 4.51142L140.274 7.21501L138.751 9.12054L135.38 6.4251C134.935 6.07727 134.424 5.82393 133.878 5.68061C133.332 5.5373 132.762 5.50703 132.204 5.59166C131.646 5.6763 131.111 5.87406 130.632 6.17281C130.153 6.47155 129.74 6.865 129.419 7.32901C128.798 8.23433 128.562 9.34892 128.762 10.4283C128.962 11.5076 129.582 12.4635 130.486 13.0863L134.492 16.0098L133.051 17.9968Z" fill="#2C2C2C"/>
<path d="M103.051 41.2296C101.962 41.2343 100.874 41.1717 99.7932 41.0423L100.127 38.5993C100.127 38.5993 105.982 38.7296 108.946 20.342C110.078 13.3387 112.823 8.47717 117.09 5.90388C122.961 2.39411 129.476 4.54395 129.752 4.64167L128.938 6.95437C128.881 6.95437 123.181 5.07326 118.295 8.02929C114.663 10.228 112.318 14.5439 111.308 20.7573C109.638 31.1319 106.959 36.2296 104.598 38.7215C108.604 38.5097 114.557 37.443 119.435 33.4609C124.63 29.2101 127.578 22.5651 128.116 13.697L130.559 13.8518C129.956 23.4365 126.731 30.6677 120.966 35.3664C114.818 40.4071 107.277 41.2296 103.051 41.2296Z" fill="#2C2C2C"/>
<path d="M126.919 88.4772C126.275 88.4772 111.104 88.0049 102.489 77.785L104.354 76.2134C112.236 85.5701 126.813 86.0342 126.959 86.0342L126.919 88.4772Z" fill="#2C2C2C"/>
<path d="M131.357 180.098L128.914 180C129.435 166.026 149.199 133.868 150.632 131.547C151.381 129.715 153.124 124.731 152.814 122.256C152.52 120.255 151.782 118.345 150.655 116.666C149.528 114.986 148.04 113.58 146.3 112.549L119.704 95.9365L120.461 94.8779C123.018 91.2948 129.964 80.1385 130.037 80.0326L132.106 81.3192C131.845 81.7427 126.145 90.8958 123.189 95.228L147.619 110.48C149.662 111.705 151.406 113.369 152.725 115.353C154.043 117.336 154.903 119.589 155.241 121.946C155.697 125.562 153.156 131.865 152.863 132.573L152.774 132.752C152.554 133.086 131.862 166.539 131.357 180.098Z" fill="#2C2C2C"/>
<path d="M136.194 199.169L109.386 179.357L110.013 178.388C113.124 173.616 117.977 171.694 122.986 173.265C129.842 175.399 136.593 184.177 136.251 196.824L136.194 199.169ZM112.725 178.811L133.784 194.373C133.279 184.251 127.806 177.345 122.261 175.643C118.637 174.462 115.217 175.627 112.725 178.787V178.811Z" fill="#2C2C2C"/>
<path d="M191.194 72.8014L189.736 70.847C205.787 58.8111 207.367 32.6548 207.383 32.3942L207.489 30.3502L222.367 39.43L221.088 41.531L209.639 34.544C208.955 41.1157 205.665 61.9545 191.194 72.8014Z" fill="#2C2C2C"/>
<path d="M224.981 220.684H199.736V223.127H224.981V220.684Z" fill="#2C2C2C"/>
<path d="M172.179 222.598C172.179 223.216 171.996 223.821 171.652 224.335C171.309 224.849 170.82 225.25 170.249 225.487C169.678 225.723 169.049 225.785 168.442 225.665C167.836 225.544 167.278 225.246 166.841 224.809C166.404 224.372 166.106 223.814 165.985 223.208C165.865 222.601 165.927 221.972 166.163 221.401C166.4 220.83 166.801 220.341 167.315 219.998C167.829 219.654 168.434 219.471 169.052 219.471C169.882 219.471 170.677 219.8 171.263 220.387C171.85 220.973 172.179 221.768 172.179 222.598Z" fill="white"/>
<path d="M157.578 222.598C157.58 223.218 157.397 223.825 157.054 224.342C156.71 224.858 156.221 225.262 155.648 225.5C155.076 225.739 154.445 225.802 153.836 225.682C153.228 225.562 152.668 225.264 152.229 224.826C151.79 224.388 151.49 223.829 151.369 223.221C151.247 222.612 151.309 221.981 151.546 221.408C151.783 220.835 152.185 220.345 152.7 220C153.216 219.655 153.823 219.471 154.443 219.471C155.273 219.471 156.069 219.8 156.657 220.386C157.245 220.972 157.576 221.768 157.578 222.598Z" fill="white"/>
<path d="M205.029 133.062L202.586 132.956C202.668 131.246 202.709 129.528 202.725 127.842H205.168C205.152 129.568 205.111 131.319 205.029 133.062Z" fill="#2C2C2C"/>
<path d="M202.619 122.207C201.927 105.708 197.945 96.5961 197.904 96.5065L200.135 95.5049C200.306 95.8876 204.345 105.09 205.021 122.101L202.619 122.207Z" fill="#2C2C2C"/>
<path d="M71.8861 168.567H23.7102C18.3474 168.56 13.2061 166.427 9.41397 162.635C5.62188 158.843 3.48864 153.702 3.48218 148.339V137.492C3.48864 132.129 5.62188 126.988 9.41397 123.196C13.2061 119.403 18.3474 117.27 23.7102 117.264H24.6467C27.4377 117.27 30.1951 117.873 32.7343 119.032C35.2735 120.19 37.5358 121.878 39.3698 123.982C41.4323 126.387 42.7704 129.328 43.2288 132.463C43.6872 135.598 43.247 138.799 41.9594 141.694H77.5864V144.137H37.8877L39.0196 142.125C40.5099 139.554 41.1676 136.585 40.9022 133.625C40.6368 130.665 39.4614 127.859 37.5376 125.594C35.9328 123.751 33.9524 122.272 31.729 121.256C29.5057 120.241 27.0909 119.712 24.6467 119.707H23.7102C18.9953 119.713 14.4754 121.589 11.1414 124.923C7.80749 128.257 5.93164 132.777 5.92517 137.492V148.339C5.93164 153.054 7.80749 157.574 11.1414 160.907C14.4754 164.241 18.9953 166.117 23.7102 166.124H71.8861V168.567Z" fill="#37B874"/>
<path d="M45.8275 144.137H24.1337C22.9707 144.187 21.8104 143.987 20.731 143.551C19.6517 143.115 18.6785 142.452 17.877 141.608C17.0754 140.763 16.4643 139.757 16.0846 138.657C15.705 137.556 15.5657 136.387 15.6762 135.228C15.7866 134.069 16.1443 132.948 16.7251 131.939C17.3058 130.93 18.0961 130.057 19.0428 129.379C19.9894 128.702 21.0703 128.235 22.2126 128.01C23.3549 127.786 24.532 127.809 25.6647 128.078C27.44 128.522 29.0202 129.538 30.162 130.968C31.3038 132.398 31.944 134.164 31.9839 135.993H29.5409C29.4984 134.727 29.0541 133.507 28.2724 132.51C27.4906 131.513 26.4119 130.791 25.1924 130.448C24.257 130.254 23.2881 130.299 22.3746 130.578C21.4611 130.857 20.6323 131.361 19.9643 132.043C19.2962 132.726 18.8104 133.565 18.5515 134.485C18.2925 135.404 18.2687 136.374 18.4823 137.304C18.7815 138.571 19.5053 139.698 20.5335 140.496C21.5616 141.295 22.8321 141.717 24.1337 141.694H45.8275V144.137Z" fill="#37B874"/>
<path d="M67.8143 156.352H65.3713V166.938H67.8143V156.352Z" fill="#37B874"/>
<path d="M56.4137 156.352H53.9707V166.938H56.4137V156.352Z" fill="#37B874"/>
<path d="M44.1989 156.352H41.7559V166.938H44.1989V156.352Z" fill="#37B874"/>
<path d="M32.7982 156.352H30.3552V166.938H32.7982V156.352Z" fill="#37B874"/>
<path d="M21.3976 156.352H18.9546V166.124H21.3976V156.352Z" fill="#37B874"/>
<path d="M186.707 142.508H184.264V166.938H186.707V142.508Z" fill="#37B874"/>
<path d="M174.492 156.352H172.049V166.938H174.492V156.352Z" fill="#37B874"/>
<path d="M163.091 156.352H160.648V166.938H163.091V156.352Z" fill="#37B874"/>
<path d="M151.691 156.352H149.248V166.124H151.691V156.352Z" fill="#37B874"/>
<path d="M202.098 168.567H141.919V166.124H200.909C203.177 162.907 204.394 159.067 204.394 155.13C204.394 151.194 203.177 147.354 200.909 144.137H150.876V141.694H202.098L202.464 142.134C205.302 145.872 206.838 150.437 206.838 155.13C206.838 159.824 205.302 164.388 202.464 168.127L202.098 168.567Z" fill="#37B874"/>
<path d="M196.886 158.795C196.161 158.795 195.453 158.58 194.85 158.177C194.248 157.775 193.778 157.202 193.501 156.533C193.223 155.863 193.151 155.126 193.292 154.415C193.433 153.705 193.782 153.052 194.295 152.539C194.807 152.027 195.46 151.678 196.171 151.536C196.882 151.395 197.619 151.467 198.289 151.745C198.958 152.022 199.53 152.492 199.933 153.094C200.336 153.697 200.551 154.406 200.551 155.13C200.549 156.102 200.162 157.032 199.475 157.719C198.788 158.406 197.857 158.793 196.886 158.795V158.795ZM196.886 153.909C196.645 153.909 196.408 153.98 196.208 154.115C196.007 154.249 195.85 154.44 195.758 154.663C195.665 154.886 195.641 155.132 195.688 155.369C195.735 155.606 195.852 155.823 196.022 155.994C196.193 156.165 196.411 156.281 196.648 156.328C196.885 156.375 197.13 156.351 197.354 156.259C197.577 156.166 197.768 156.01 197.902 155.809C198.036 155.608 198.108 155.372 198.108 155.13C198.108 154.806 197.979 154.496 197.75 154.267C197.521 154.038 197.21 153.909 196.886 153.909Z" fill="#37B874"/>
<path d="M174.581 21.0749L172.782 19.4218L189.451 1.37622L209.199 17.8013L225.803 3.42834L227.399 5.27687L209.231 21.0016L189.671 4.73127L174.581 21.0749Z" fill="#37B874"/>
<path d="M228.238 13.8436H225.795V5.70032H217.652V3.25732H228.238V13.8436Z" fill="#37B874"/>
</svg>
