<svg width="251" height="250" viewBox="0 0 251 250" fill="none" xmlns="http://www.w3.org/2000/svg">
<path d="M158.978 88.8313L149.147 74.8129L165.248 74.4724L158.978 88.8313ZM153.56 77.0423L158.514 84.1172L161.68 76.872L153.56 77.0423Z" fill="#37B874"/>
<path d="M216.484 238.528L214.301 237.723L217.606 228.791L226.144 231.446L225.594 213.17L240.952 226.538L239.427 228.287L228.071 218.41L228.567 234.635L219.023 231.662L216.484 238.528Z" fill="#37B874"/>
<path d="M87.0826 27.0684C85.9344 27.0684 84.812 26.7279 83.8572 26.09C82.9025 25.4521 82.1584 24.5454 81.719 23.4846C81.2796 22.4238 81.1646 21.2565 81.3887 20.1303C81.6127 19.0042 82.1656 17.9697 82.9775 17.1578C83.7894 16.3459 84.8239 15.793 85.95 15.569C87.0762 15.345 88.2435 15.4599 89.3043 15.8993C90.3651 16.3387 91.2718 17.0828 91.9097 18.0376C92.5476 18.9923 92.8881 20.1147 92.8881 21.2629C92.8861 22.802 92.2738 24.2775 91.1855 25.3658C90.0972 26.4541 88.6217 27.0664 87.0826 27.0684V27.0684ZM87.0826 17.7796C86.3937 17.7796 85.7202 17.9839 85.1474 18.3667C84.5746 18.7494 84.1281 19.2934 83.8645 19.9299C83.6008 20.5664 83.5318 21.2668 83.6662 21.9425C83.8006 22.6182 84.1324 23.2388 84.6195 23.726C85.1067 24.2131 85.7274 24.5449 86.4031 24.6793C87.0787 24.8137 87.7791 24.7447 88.4156 24.4811C89.0521 24.2174 89.5961 23.771 89.9789 23.1981C90.3616 22.6253 90.5659 21.9519 90.5659 21.2629C90.5639 20.3397 90.1962 19.4549 89.5434 18.8021C88.8906 18.1493 88.0058 17.7817 87.0826 17.7796V17.7796Z" fill="#37B874"/>
<path d="M125.399 217.489H161.006L160.936 194.267H174.939V205.104L185.645 205.298C187.719 199.035 188.369 188.051 187.526 180.899C185.01 159.713 168.677 144.665 147.793 142.559C140.156 141.758 132.442 142.945 125.399 146.004V217.489Z" fill="#37B874"/>
<path d="M174.939 200.46H164.876V249.226H174.939V200.46Z" fill="#37B874"/>
<path d="M101.403 200.46H91.3401V249.226H101.403V200.46Z" fill="#37B874"/>
<path d="M161.006 227.552H101.403V229.874H161.006V227.552Z" fill="#2C2C2C"/>
<path d="M161.006 215.941H101.403V218.263H161.006V215.941Z" fill="#2C2C2C"/>
<path d="M175.713 250H159.458V193.493H175.713V250ZM161.78 247.678H173.391V195.815H161.78V247.678Z" fill="#2C2C2C"/>
<path d="M102.177 250H85.9216V193.493H102.177V250ZM88.2438 247.678H99.8549V195.815H88.2438V247.678Z" fill="#2C2C2C"/>
<path d="M188.872 242.259H177.261V239.937H186.55V206.652H177.261V204.33H188.872V242.259Z" fill="#2C2C2C"/>
<path d="M199.709 229.874H190.421V227.552H197.387V218.263H190.421V215.941H199.709V229.874Z" fill="#2C2C2C"/>
<path d="M84.3735 242.259H72.7625V204.33H84.3735V206.652H75.0847V239.937H84.3735V242.259Z" fill="#2C2C2C"/>
<path d="M70.4401 229.874H62.6995V215.941H70.4401V218.263H65.0217V227.552H70.4401V229.874Z" fill="#2C2C2C"/>
<path d="M167.632 180.017C165.093 166.517 158.792 160.316 145.889 158.621L146.191 156.299C160.124 158.118 167.191 165.077 169.908 179.568L167.632 180.017Z" fill="#2C2C2C"/>
<path d="M134.634 159.984L133.86 157.785C134.487 157.576 135.013 157.383 135.485 157.213C137.486 156.368 139.646 155.966 141.817 156.036C143.272 156.034 144.725 156.13 146.167 156.322L145.865 158.645C144.523 158.467 143.171 158.38 141.817 158.381C139.918 158.31 138.027 158.664 136.282 159.419L134.634 159.984Z" fill="#2C2C2C"/>
<path d="M188.145 184.854H185.823C185.823 171.161 180.079 159.542 170.07 152.971C168.238 151.777 166.826 150.038 166.033 148C165.24 145.961 165.106 143.726 165.65 141.607L168.46 130.77C170.326 123.626 167.787 116.063 162.152 111.968C160.822 110.996 159.363 110.214 157.817 109.646C152.539 107.946 147.029 107.074 141.484 107.061C139.469 107.033 137.458 107.262 135.5 107.742L133.697 108.106L133.256 105.822L135.028 105.466C137.142 104.961 139.31 104.716 141.484 104.738C147.297 104.737 153.074 105.656 158.599 107.463C160.353 108.094 162.008 108.973 163.514 110.072C169.915 114.716 172.803 123.27 170.713 131.335L167.903 142.172C167.476 143.818 167.576 145.555 168.188 147.141C168.801 148.727 169.895 150.081 171.317 151.012C182.022 158.041 188.145 170.364 188.145 184.854Z" fill="#2C2C2C"/>
<path d="M155.108 144.773L152.871 144.162L157.298 127.844C157.964 125.305 157.175 122.612 155.379 121.311C154.93 120.985 154.438 120.725 153.916 120.537C149.906 119.286 145.731 118.647 141.531 118.641C140.294 118.609 139.059 118.749 137.862 119.059C137.351 119.175 136.747 119.314 135.942 119.469L135.501 117.147C136.275 117 136.863 116.868 137.358 116.76C138.72 116.408 140.124 116.246 141.531 116.28C145.994 116.293 150.431 116.98 154.69 118.316C155.419 118.577 156.108 118.942 156.733 119.399C159.28 121.249 160.426 124.949 159.528 128.402L155.108 144.773Z" fill="#2C2C2C"/>
<path d="M38.3551 164.899C38.3551 165.491 38.1794 166.071 37.8502 166.563C37.521 167.056 37.0532 167.44 36.5058 167.667C35.9584 167.893 35.3561 167.953 34.775 167.837C34.1939 167.721 33.6601 167.436 33.2412 167.017C32.8222 166.598 32.5369 166.064 32.4213 165.483C32.3057 164.902 32.3651 164.3 32.5918 163.753C32.8185 163.205 33.2025 162.737 33.6951 162.408C34.1878 162.079 34.7669 161.903 35.3594 161.903C36.1533 161.905 36.914 162.222 37.4754 162.783C38.0367 163.344 38.353 164.105 38.3551 164.899V164.899Z" fill="#37B874"/>
<path d="M38.3551 179.374C38.3551 179.966 38.1794 180.546 37.8502 181.038C37.521 181.531 37.0532 181.915 36.5058 182.142C35.9584 182.368 35.3561 182.428 34.775 182.312C34.1939 182.196 33.6601 181.911 33.2412 181.492C32.8222 181.073 32.5369 180.54 32.4213 179.958C32.3057 179.377 32.3651 178.775 32.5918 178.228C32.8185 177.68 33.2025 177.212 33.6951 176.883C34.1878 176.554 34.7669 176.378 35.3594 176.378C36.1533 176.38 36.914 176.697 37.4754 177.258C38.0367 177.819 38.353 178.58 38.3551 179.374V179.374Z" fill="#37B874"/>
<path d="M38.355 194.159C38.3535 194.751 38.1765 195.329 37.8464 195.821C37.5163 196.313 37.0479 196.695 36.5004 196.921C35.9529 197.146 35.3508 197.205 34.7703 197.088C34.1897 196.972 33.6566 196.686 33.2384 196.266C32.8203 195.847 32.5357 195.313 32.4208 194.733C32.3058 194.152 32.3656 193.55 32.5925 193.003C32.8195 192.456 33.2035 191.988 33.6959 191.66C34.1884 191.331 34.7673 191.155 35.3594 191.155C35.7535 191.155 36.1436 191.233 36.5076 191.384C36.8715 191.535 37.2021 191.756 37.4804 192.035C37.7587 192.314 37.9792 192.646 38.1292 193.01C38.2793 193.374 38.3561 193.765 38.355 194.159Z" fill="#37B874"/>
<path d="M126.173 206.652H123.851V85.17C123.851 83.5276 123.198 81.9525 122.037 80.7912C120.876 79.6298 119.301 78.9774 117.658 78.9774H95.9844V76.6552H117.658C119.917 76.6552 122.082 77.5523 123.679 79.1491C125.276 80.7459 126.173 82.9117 126.173 85.17V206.652Z" fill="#2C2C2C"/>
<path d="M118.061 239.937H101.403V237.615H118.061C119.703 237.615 121.278 236.962 122.44 235.801C123.601 234.64 124.253 233.065 124.253 231.422H126.576C126.576 233.681 125.678 235.846 124.082 237.443C122.485 239.04 120.319 239.937 118.061 239.937Z" fill="#2C2C2C"/>
<path d="M61.9254 239.937H8.51475C6.2565 239.937 4.09074 239.04 2.49391 237.443C0.897087 235.846 0 233.681 0 231.422L0 85.17C0 82.9117 0.897087 80.7459 2.49391 79.1491C4.09074 77.5523 6.2565 76.6552 8.51475 76.6552H35.6071V78.9774H8.51475C6.87238 78.9774 5.29729 79.6298 4.13596 80.7912C2.97463 81.9525 2.3222 83.5276 2.3222 85.17V231.469C2.3222 233.111 2.97463 234.686 4.13596 235.848C5.29729 237.009 6.87238 237.661 8.51475 237.661H61.9254V239.937Z" fill="#2C2C2C"/>
<path d="M93.6623 165.627H90.5661V163.304H93.6623V165.627ZM87.4698 165.627H84.3735V163.304H87.4698V165.627ZM81.2773 165.627H78.181V163.304H81.2773V165.627ZM75.0847 165.627H71.9884V163.304H75.0847V165.627ZM68.8922 165.627H65.7959V163.304H68.8922V165.627ZM62.6996 165.627H59.6033V163.304H62.6996V165.627ZM56.5071 165.627H53.4108V163.304H56.5071V165.627ZM50.3145 165.627H47.2183V163.304H50.3145V165.627Z" fill="#2C2C2C"/>
<path d="M93.6623 181.108H90.5661V178.786H93.6623V181.108ZM87.4698 181.108H84.3735V178.786H87.4698V181.108ZM81.2773 181.108H78.181V178.786H81.2773V181.108ZM75.0847 181.108H71.9884V178.786H75.0847V181.108ZM68.8922 181.108H65.7959V178.786H68.8922V181.108ZM62.6996 181.108H59.6033V178.786H62.6996V181.108ZM56.5071 181.108H53.4108V178.786H56.5071V181.108ZM50.3145 181.108H47.2183V178.786H50.3145V181.108Z" fill="#2C2C2C"/>
<path d="M74.3106 193.493H47.2183V195.815H74.3106V193.493Z" fill="#2C2C2C"/>
<path d="M55.7328 225.23H13.9331V91.3161H16.2553V222.908H55.7328V225.23Z" fill="#2C2C2C"/>
<path d="M113.014 91.3161H110.692V208.2H113.014V91.3161Z" fill="#2C2C2C"/>
<path d="M92.888 147.049H32.5107V112.216H34.8329V144.727H92.888V147.049Z" fill="#37B874"/>
<path d="M97.5327 95.9605H34.0591V78.66C34.0632 76.2683 35.0157 73.9757 36.7076 72.2852C38.3996 70.5947 40.6929 69.6442 43.0847 69.6422H46.4442V71.9644H43.0847C41.3082 71.9644 39.6043 72.6695 38.3474 73.925C37.0905 75.1805 36.3833 76.8835 36.3813 78.66V93.6383H95.2104V78.66C95.2084 76.8835 94.5012 75.1805 93.2443 73.925C91.9874 72.6695 90.2835 71.9644 88.507 71.9644H81.2772V69.6422H88.507C90.8988 69.6442 93.1921 70.5947 94.8841 72.2852C96.5761 73.9757 97.5286 76.2683 97.5327 78.66V95.9605Z" fill="#2C2C2C"/>
<path d="M76.7954 78.931H55.5704C53.7665 78.9289 52.037 78.2114 50.7615 76.9359C49.4859 75.6603 48.7684 73.9308 48.7664 72.1269V66.3833C48.7684 64.5794 49.4859 62.85 50.7615 61.5744C52.037 60.2988 53.7665 59.5813 55.5704 59.5793H76.7954C78.5993 59.5813 80.3287 60.2988 81.6043 61.5744C82.8799 62.85 83.5974 64.5794 83.5994 66.3833V72.1269C83.5974 73.9308 82.8799 75.6603 81.6043 76.9359C80.3287 78.2114 78.5993 78.9289 76.7954 78.931V78.931ZM55.5704 61.9015C54.3818 61.9015 53.2418 62.3737 52.4013 63.2142C51.5608 64.0547 51.0886 65.1947 51.0886 66.3833V72.1269C51.0906 73.315 51.5635 74.4537 52.4035 75.2938C53.2436 76.1339 54.3824 76.6067 55.5704 76.6088H76.7954C77.9834 76.6067 79.1222 76.1339 79.9622 75.2938C80.8023 74.4537 81.2752 73.315 81.2772 72.1269V66.3833C81.2772 65.7948 81.1613 65.212 80.9361 64.6682C80.7108 64.1244 80.3807 63.6304 79.9645 63.2142C79.5483 62.798 79.0543 62.4679 78.5105 62.2426C77.9667 62.0174 77.3839 61.9015 76.7954 61.9015H55.5704Z" fill="#2C2C2C"/>
<path d="M44.9269 137.582L43.0769 136.181L58.6279 115.622L78.9937 124.144L90.6821 110.49L92.447 111.999L79.6594 126.946L59.3943 118.463L44.9269 137.582Z" fill="#37B874"/>
<path d="M92.8881 119.957H90.5659V112.216H82.8252V109.894H92.8881V119.957Z" fill="#37B874"/>
<path d="M238.924 201.234H192.743V198.912H238.924C241.251 198.907 243.481 197.981 245.126 196.336C246.772 194.691 247.698 192.46 247.702 190.134V112.479C247.7 110.152 246.774 107.92 245.129 106.274C243.483 104.629 241.251 103.703 238.924 103.701H181.225C178.898 103.705 176.668 104.631 175.022 106.277C173.377 107.922 172.451 110.152 172.447 112.479H170.125C170.127 109.536 171.297 106.714 173.378 104.632C175.459 102.551 178.282 101.381 181.225 101.379H238.924C241.867 101.381 244.689 102.551 246.771 104.632C248.852 106.714 250.022 109.536 250.024 112.479V190.134C250.02 193.076 248.849 195.897 246.768 197.978C244.688 200.059 241.867 201.23 238.924 201.234V201.234Z" fill="#37B874"/>
<path d="M237.639 91.3161H235.317V81.1371C235.315 80.5526 235.082 79.9927 234.668 79.5794C234.255 79.1661 233.695 78.933 233.111 78.931H187.982C187.398 78.933 186.838 79.1661 186.425 79.5794C186.011 79.9927 185.778 80.5526 185.776 81.1371V91.3161H183.454V81.1371C183.454 79.9361 183.931 78.7843 184.78 77.9351C185.63 77.0859 186.781 76.6088 187.982 76.6088H233.111C234.312 76.6088 235.463 77.0859 236.313 77.9351C237.162 78.7843 237.639 79.9361 237.639 81.1371V91.3161Z" fill="#37B874"/>
<path d="M205.469 176.673L203.665 157.754L192.271 157.197L210.98 124.229L212.923 143.14L225.308 144.061L205.469 176.673ZM196.18 155.061L205.817 155.533L207.148 169.466L221.383 146.097L210.841 145.323L209.44 131.699L196.18 155.061Z" fill="#2C2C2C"/>
<path d="M198.935 77.3828H196.613V85.8976H198.935V77.3828Z" fill="#37B874"/>
<path d="M211.32 77.3828H208.998V85.8976H211.32V77.3828Z" fill="#37B874"/>
<path d="M224.48 77.3828H222.157V85.8976H224.48V77.3828Z" fill="#37B874"/>
<path d="M229.124 95.9605H226.028V93.6383H229.124V95.9605ZM222.932 95.9605H219.835V93.6383H222.932V95.9605ZM216.739 95.9605H213.643V93.6383H216.739V95.9605ZM210.546 95.9605H207.45V93.6383H210.546V95.9605ZM204.354 95.9605H201.258V93.6383H204.354V95.9605ZM198.161 95.9605H195.065V93.6383H198.161V95.9605ZM191.969 95.9605H188.873V93.6383H191.969V95.9605Z" fill="#37B874"/>
<path d="M35.2897 50.4762L27.6807 30.1879L21.5346 41.0016H5.41846V38.6794H20.1877L28.1141 24.7307L35.4755 44.3534L39.0285 36.3572H55.7329V38.6794H40.5379L35.2897 50.4762Z" fill="#2C2C2C"/>
<path d="M14.204 64.9978C11.6693 64.9957 9.2389 63.9879 7.44655 62.1955C5.65419 60.4032 4.64635 57.9728 4.6443 55.438V21.9209C4.64226 20.6655 4.88789 19.4222 5.3671 18.2619C5.84632 17.1016 6.54971 16.0473 7.437 15.1593C8.32429 14.2713 9.37804 13.5671 10.5379 13.0869C11.6978 12.6067 12.941 12.3601 14.1963 12.3611H47.7212C50.2546 12.3632 52.6838 13.37 54.4759 15.1606C56.2681 16.9513 57.2768 19.3797 57.2809 21.9131V51.8386H54.9587V21.9131C54.9567 19.9942 54.1935 18.1545 52.8366 16.7977C51.4798 15.4408 49.6401 14.6776 47.7212 14.6756H14.1963C13.2456 14.6756 12.3042 14.8631 11.426 15.2274C10.5478 15.5917 9.75013 16.1256 9.07858 16.7986C8.40703 17.4716 7.87481 18.2704 7.51239 19.1494C7.14997 20.0283 6.96447 20.9701 6.9665 21.9209V55.438C6.9665 57.3575 7.72903 59.1984 9.08633 60.5557C10.4436 61.913 12.2845 62.6756 14.204 62.6756H44.1218V64.9978H14.204Z" fill="#37B874"/>
<path d="M14.7072 63.4496H12.385V74.2866H14.7072V63.4496Z" fill="#37B874"/>
<path d="M48.7663 2.29825H46.4441V13.1352H48.7663V2.29825Z" fill="#37B874"/>
<path d="M14.7072 2.29825H12.385V13.1352H14.7072V2.29825Z" fill="#37B874"/>
<path d="M12.385 31.7128V25.3035C12.385 23.924 12.933 22.6009 13.9086 21.6254C14.8841 20.6498 16.2072 20.1018 17.5867 20.1018H44.3385C45.7162 20.1038 47.0369 20.6515 48.0117 21.6249C48.9866 22.5983 49.5362 23.9182 49.5403 25.2958V29.3906H47.2181V25.2958C47.2181 24.9177 47.1436 24.5432 46.9989 24.1939C46.8542 23.8445 46.6421 23.5271 46.3747 23.2597C46.1073 22.9923 45.7898 22.7802 45.4405 22.6355C45.0911 22.4908 44.7167 22.4163 44.3385 22.4163H17.5867C16.8223 22.4183 16.0899 22.7234 15.5501 23.2647C15.0103 23.8059 14.7072 24.5391 14.7072 25.3035V31.7128H12.385Z" fill="#37B874"/>
<path d="M17.5867 56.483C16.2078 56.481 14.8859 55.9323 13.9108 54.9572C12.9358 53.9821 12.3871 52.6602 12.385 51.2813V47.1942H14.7072V51.2813C14.7072 52.045 15.0106 52.7774 15.5506 53.3174C16.0906 53.8574 16.823 54.1608 17.5867 54.1608H44.3385C45.1016 54.1588 45.8328 53.8547 46.3724 53.3152C46.912 52.7756 47.216 52.0443 47.2181 51.2813V44.872H49.5403V51.2813C49.5382 52.6602 48.9895 53.9821 48.0145 54.9572C47.0394 55.9323 45.7175 56.481 44.3385 56.483H17.5867Z" fill="#37B874"/>
<path d="M138.504 39.6934L138.225 37.3712C138.45 37.3712 139.479 37.139 141.082 36.7055L141.685 38.9503C140.176 39.3683 138.937 39.6393 138.504 39.6934ZM144.697 38.0756L143.977 35.8618C144.952 35.5522 145.92 35.2116 146.848 34.8633L147.661 37.0384C146.732 37.4022 145.726 37.7505 144.751 38.0756H144.697ZM150.61 35.8463L149.666 33.7254C150.626 33.2996 151.539 32.8584 152.375 32.4095L153.474 34.4608C152.6 34.9329 151.632 35.4051 150.626 35.8463H150.61Z" fill="#2C2C2C"/>
<path d="M125.833 64.959C111.071 64.959 101.403 60.3146 99.6149 59.3935C98.8068 58.8471 98.1309 58.1271 97.6368 57.286C97.1426 56.445 96.8425 55.5042 96.7585 54.5323V54.4007C96.7585 38.4704 109.097 37.588 115.731 37.1235C116.768 37.0461 117.658 36.9842 118.34 36.8758C123.325 36.1018 128.348 34.3059 132.381 32.8739L132.59 32.8042C142.893 28.7791 149.573 12.9726 149.62 12.8178L149.891 12.1521L150.61 12.1057C150.742 12.1057 164.087 11.3316 168.724 22.4008L169.01 23.0819L168.507 23.6315C168.228 23.9334 161.726 31.0007 156.633 33.0906L155.773 30.9852C159.644 29.437 164.683 24.3359 166.301 22.6485C162.632 14.9852 153.993 14.4511 151.485 14.4433C150.014 17.6867 143.466 31.0858 133.403 35.0181L133.155 35.1032C129.029 36.5662 123.866 38.3775 118.703 39.2058C117.929 39.3296 116.985 39.3993 115.894 39.4767C109.198 39.9489 99.0807 40.6688 99.0807 54.4394V54.571C99.2624 55.6473 99.8325 56.6195 100.683 57.3035C102.386 58.1937 111.613 62.6059 125.786 62.6059C125.964 62.6059 148.273 61.7002 168.205 61.4525C172.849 61.3983 176.542 61.5763 179.53 61.7234C181.774 61.8395 183.539 61.9247 184.909 61.8705H191.775C194.198 61.8705 196.675 59.2619 196.675 56.6997L196.613 51.6838C196.553 46.8883 195.444 42.1641 193.362 37.8434L193.246 37.6035V37.3325C193.246 34.7472 192.805 26.2943 187.054 26.2943H182.146C182.146 27.1148 182.146 28.2837 182.107 29.499C182.099 31.2572 181.603 32.9787 180.673 34.4712C179.744 35.9638 178.418 37.1688 176.844 37.9518C175.366 38.7154 173.703 39.0477 172.045 38.9108C170.388 38.7739 168.802 38.1734 167.47 37.1777C166.431 36.2084 165.468 35.1603 164.59 34.0428L166.425 32.5333C167.178 33.5003 167.998 34.4134 168.878 35.2658C169.87 36.0045 171.049 36.4487 172.282 36.5473C173.514 36.6459 174.749 36.3949 175.845 35.8231C177.034 35.2326 178.035 34.3236 178.738 33.1974C179.44 32.0712 179.816 30.7721 179.824 29.4448C179.824 27.1922 179.878 25.079 179.878 25.079V23.9412H187.069C192.348 23.9412 195.522 28.8333 195.584 37.0384C197.734 41.6139 198.877 46.5976 198.936 51.6528L198.997 56.7152C198.997 60.5855 195.483 64.2237 191.775 64.2237H184.956C183.532 64.2778 181.713 64.2237 179.414 64.0766C176.464 63.9295 172.78 63.7515 168.236 63.8057C148.335 64.0534 126.057 64.9513 125.833 64.959V64.959Z" fill="#37B874"/>
<path d="M174.297 19.4903L172.47 18.0428C176.177 13.1385 178.814 7.51114 180.211 1.52417L180.358 0.796546L181.047 0.610769C181.178 0.572066 194.16 -2.87254 200.925 7.02779L201.304 7.59286L201.01 8.19664C200.894 8.42886 198.138 13.9557 193.958 17.1913L192.534 15.3568C195.537 13.0346 197.798 9.24937 198.603 7.77864C193.463 0.974582 184.809 2.18213 182.347 2.69301C180.845 8.78524 178.105 14.503 174.297 19.4903V19.4903Z" fill="#37B874"/>
<path d="M204.772 48.4404L204.276 46.1724L208.147 45.3287C212.683 44.3456 216.383 43.7806 219.355 43.3239C221.585 42.9833 223.342 42.7123 224.673 42.3872L231.446 41.0481C233.838 40.5604 235.758 37.5184 235.247 35.0259L234.186 30.1028C233.168 25.4329 231.135 21.0438 228.234 17.2455L228.071 17.0288L228.017 16.7733C227.344 13.4913 225.254 6.07571 219.704 7.19037L214.866 8.18118C215.021 8.95524 215.237 10.1241 215.469 11.3162C215.808 13.0344 215.662 14.8129 215.048 16.4531C214.434 18.0932 213.377 19.5307 211.994 20.605C210.693 21.6608 209.122 22.3301 207.459 22.5367C205.796 22.7434 204.109 22.479 202.589 21.7738C201.372 21.0377 200.215 20.2068 199.129 19.2891L200.592 17.4855C201.541 18.2639 202.539 18.9801 203.58 19.6296C204.708 20.1448 205.957 20.3359 207.187 20.1814C208.418 20.0269 209.581 19.533 210.546 18.7549C211.58 17.9459 212.372 16.8682 212.835 15.6395C213.298 14.4108 213.414 13.0785 213.171 11.7883C212.745 9.58224 212.358 7.51548 212.358 7.51548L212.149 6.39308L219.224 4.95331C224.418 3.89284 228.513 8.04959 230.208 16.038C233.223 20.0633 235.336 24.6916 236.4 29.6074L237.468 34.5382C238.243 38.3156 235.502 42.573 231.849 43.3161L225.138 44.6862C223.752 45.0268 221.941 45.2977 219.657 45.6538C216.716 46.1028 213.062 46.6601 208.588 47.6277L204.772 48.4404Z" fill="#37B874"/>
<path d="M202.883 40.5062L202.295 38.2614C208.596 36.5972 212.706 35.5831 214.866 35.1651C223.528 33.5164 235.557 31.3567 235.673 31.3412L236.083 33.6635C235.967 33.6635 223.946 35.8386 215.299 37.4873C213.202 37.8589 209.138 38.8574 202.883 40.5062Z" fill="#37B874"/>
<path d="M122.179 55.4845C119.965 55.4845 118.131 55.4303 116.76 55.3142C105.49 54.3466 98.0899 51.2967 97.7803 51.1651L98.6782 49.021C104.558 51.1902 110.712 52.5293 116.962 52.9997C122.744 53.5028 138.287 52.7365 153.343 51.9934C167.516 51.2967 180.9 50.6388 186.728 50.9716L186.605 53.2938C180.892 52.9765 166.943 53.6576 153.459 54.3233C141.763 54.8884 129.757 55.4845 122.179 55.4845Z" fill="#37B874"/>
</svg>
