<svg width="248" height="250" viewBox="0 0 248 250" fill="none" xmlns="http://www.w3.org/2000/svg">
<path d="M30.4284 134.565L19.9126 119.543L37.1886 119.174L30.4284 134.565ZM24.1415 121.683L29.9702 129.991L33.7259 121.48L24.1415 121.683Z" fill="#37B874"/>
<path d="M127.58 235.562L112.745 222.508L114.24 220.818L125.199 230.462L124.816 214.718L134.054 217.648L136.563 211L138.674 211.796L135.414 220.442L127.144 217.821L127.58 235.562Z" fill="#37B874"/>
<path d="M189.773 28.4153C188.659 28.4153 187.57 28.0849 186.644 27.4659C185.717 26.8469 184.995 25.967 184.569 24.9377C184.142 23.9083 184.031 22.7756 184.248 21.6828C184.466 20.59 185.002 19.5862 185.79 18.7983C186.578 18.0105 187.582 17.4739 188.674 17.2566C189.767 17.0392 190.9 17.1508 191.929 17.5772C192.959 18.0035 193.838 18.7256 194.457 19.652C195.076 20.5784 195.407 21.6676 195.407 22.7818C195.403 24.2747 194.808 25.7053 193.752 26.7609C192.697 27.8165 191.266 28.4113 189.773 28.4153V28.4153ZM189.773 19.4017C189.105 19.4017 188.451 19.6 187.895 19.9714C187.34 20.3428 186.906 20.8707 186.651 21.4883C186.395 22.1059 186.328 22.7856 186.458 23.4412C186.589 24.0969 186.911 24.6992 187.383 25.1719C187.856 25.6446 188.458 25.9665 189.114 26.097C189.77 26.2274 190.449 26.1604 191.067 25.9046C191.685 25.6488 192.212 25.2155 192.584 24.6597C192.955 24.1038 193.153 23.4503 193.153 22.7818C193.151 21.886 192.795 21.0274 192.161 20.3939C191.528 19.7605 190.669 19.4037 189.773 19.4017V19.4017Z" fill="#37B874"/>
<path d="M33.9136 42.6868H17.3887V95.266H33.9136V42.6868Z" fill="#37B874"/>
<path d="M240.475 42.6868H223.95V95.266H240.475V42.6868Z" fill="#37B874"/>
<path d="M104.55 189.398L101.282 168.862L88.5508 156.13L102.777 157.625L114.54 162.492L126.746 163.619L140.972 160.622L149.956 157.625L161.193 156.874L153.704 166.616L149.212 177.102L148.461 189.826L137.975 189.082L128.241 188.331L117.755 189.082L104.55 189.398Z" fill="#37B874"/>
<path d="M109.027 83.3756V94.943C109.027 103.859 116.012 115.547 124.928 115.547C133.844 115.547 142.016 108.719 141.325 94.943L141.701 82.6169L155.034 87.0035L151.969 103.528L154.628 117.928L151.586 131.989L146.651 143.008L145.9 158.586L139.665 161.591L126.761 163.596L114.743 162.965L107.412 159.54L106.916 146.508L103.716 136.631L99.2545 125.364L99.4949 112.091L100.351 98.2555L98.4358 86.2374L109.027 83.3756Z" fill="#37B874"/>
<path d="M126.468 78.711C114.412 78.711 105.804 65.0404 105.323 52.2637L107.577 52.1811C108.02 63.9062 115.719 76.4576 126.475 76.4576C136.758 76.4576 144.502 66.5727 144.502 53.473C144.502 48.6282 143.12 42.5741 141.836 39.7423L143.894 38.8109C145.299 41.9206 146.756 48.2602 146.756 53.473C146.756 67.8572 138.035 78.711 126.468 78.711Z" fill="#2C2C2C"/>
<path d="M105.819 55.8166C105.496 55.426 98.015 46.0519 100.809 35.6337C101.35 32.8019 103.386 25.9591 110.536 22.7443C114.405 20.9941 117.469 21.3472 121.052 21.7453C124.662 22.2735 128.329 22.2912 131.944 21.7978C136.172 21.1822 140.279 19.9153 144.119 18.0422L145.179 17.5239L145.644 18.6055C149.077 26.5675 148.296 35.198 143.706 40.0804V40.3658L143.128 40.6137C140.206 43.3778 135.797 44.9101 130.952 44.8425C127.494 44.7289 124.095 43.9055 120.968 42.4235C117.841 40.9414 115.052 38.8322 112.775 36.2271C109.471 41.135 107.694 46.9109 107.667 52.8271H106.51C107.111 53.751 107.554 54.3293 107.622 54.3894L105.819 55.8166ZM116.718 23.6681C114.902 23.6441 113.105 24.0319 111.46 24.8024C105.263 27.5815 103.491 33.5831 103.018 36.0318V36.182C101.425 42.1159 103.566 47.6968 105.429 51.0844C105.939 42.2361 110.183 35.213 112.016 33.6657L112.887 32.9146L113.639 33.7934C118.145 39.2691 124.47 42.469 130.975 42.5816C135.151 42.6417 138.937 41.3723 141.438 39.0889V39.0588L141.686 38.8786L141.738 38.8185L142.369 38.195C145.907 34.1539 146.546 27.221 144.037 20.551C140.292 22.2684 136.321 23.442 132.244 24.0362C128.437 24.5491 124.577 24.5339 120.774 23.9911C119.429 23.8097 118.075 23.7019 116.718 23.6681V23.6681Z" fill="#2C2C2C"/>
<path d="M72.1761 233.219H69.9227C69.9227 228.637 68.8937 221.711 67.6693 213.689C64.3493 191.388 60.2256 163.626 73.4606 157.49C83.691 152.743 99.8253 156.513 106.323 158.368C106.495 154.53 106.6 143.624 102.725 137.224C98.7436 130.659 97.6996 121.773 97.4667 118.566C94.6274 118.859 88.3179 119.422 86.1246 119.189C58.9112 116.313 53.3828 102.89 52.3237 77.4792L54.5771 77.3815C55.6212 102.026 60.6387 114.232 86.3725 116.951C88.4456 117.169 95.7166 116.515 98.3906 116.2L99.5924 116.065L99.645 117.274C99.645 117.387 100.148 128.586 104.678 136.052C109.8 144.51 108.561 159.337 108.508 159.938L108.381 161.328L107.051 160.922C96.663 157.745 82.6394 155.717 74.4295 159.525C62.7269 164.956 66.9182 192.928 69.9227 213.351C71.1396 221.464 72.1761 228.472 72.1761 233.219Z" fill="#2C2C2C"/>
<path d="M58.055 198.779C57.4692 194.273 57.0936 189.706 56.9659 185.589C56.3725 165.895 60.992 154.215 71.0797 149.888C75.932 147.815 82.0687 147.041 89.1819 147.635L89.0016 149.888C82.2415 149.34 76.4728 150.053 71.966 151.984C62.8247 155.905 58.6559 166.879 59.1968 185.544C59.3169 189.585 59.6925 194.07 60.2709 198.509L58.055 198.779Z" fill="#2C2C2C"/>
<path d="M53.9162 249.999C53.0957 250.014 52.2804 249.865 51.5182 249.561C50.7559 249.257 50.0621 248.804 49.4772 248.228C48.8924 247.652 48.4284 246.965 48.1123 246.208C47.7963 245.451 47.6346 244.638 47.6367 243.817C47.6352 242.445 48.0713 241.107 48.8818 240C49.6923 238.892 50.8349 238.072 52.1435 237.658C59.0389 235.54 64.8677 233.662 64.9128 233.647C68.4581 232.633 71.9584 231.807 75.361 231.191C79.3645 230.44 82.8723 231.273 85.5013 233.527C89.009 236.531 90.8418 241.909 90.6465 248.639L88.3931 248.572C88.5659 242.63 86.9735 237.771 84.029 235.239C81.9033 233.414 79.1166 232.791 75.7666 233.407C72.4166 234.022 69.0064 234.819 65.5662 235.803C65.5662 235.803 59.6999 237.688 52.797 239.814C51.9554 240.09 51.2233 240.627 50.7063 241.347C50.1893 242.066 49.914 242.931 49.9202 243.817C49.9148 244.343 50.016 244.864 50.2177 245.35C50.4193 245.835 50.7173 246.275 51.0936 246.642C51.4698 247.009 51.9166 247.296 52.4069 247.486C52.8972 247.676 53.4208 247.764 53.9462 247.746L53.9162 249.999Z" fill="#2C2C2C"/>
<path d="M105.647 189.893L103.393 189.766C104.828 164.663 87.1913 157.467 87.0186 157.392L87.8373 155.296C88.0401 155.371 107.171 163.176 105.647 189.893Z" fill="#2C2C2C"/>
<path d="M125.732 164.423C117.98 164.423 110.709 162.98 106.818 160.494L108.02 158.594C114.878 162.935 133.679 163.769 145.043 158.519L145.99 160.562C140.206 163.236 132.762 164.423 125.732 164.423Z" fill="#2C2C2C"/>
<path d="M111.28 65.9719H68.4656V68.2253H111.28V65.9719Z" fill="#2C2C2C"/>
<path d="M44.4294 65.9719H33.9136V68.2253H44.4294V65.9719Z" fill="#2C2C2C"/>
<path d="M61.3074 75.7366H54.78C52.5887 75.7366 50.4871 74.8661 48.9376 73.3166C47.3881 71.767 46.5176 69.6655 46.5176 67.4741C46.5176 65.2828 47.3881 63.1812 48.9376 61.6317C50.4871 60.0822 52.5887 59.2117 54.78 59.2117H61.3074C63.4987 59.2117 65.6003 60.0822 67.1498 61.6317C68.6993 63.1812 69.5698 65.2828 69.5698 67.4741C69.5698 69.6655 68.6993 71.767 67.1498 73.3166C65.6003 74.8661 63.4987 75.7366 61.3074 75.7366ZM54.78 61.4651C53.1863 61.4651 51.6579 62.0982 50.531 63.2251C49.4041 64.352 48.771 65.8804 48.771 67.4741C48.771 69.0678 49.4041 70.5963 50.531 71.7232C51.6579 72.8501 53.1863 73.4832 54.78 73.4832H61.3074C62.9011 73.4832 64.4295 72.8501 65.5564 71.7232C66.6833 70.5963 67.3164 69.0678 67.3164 67.4741C67.3164 65.8804 66.6833 64.352 65.5564 63.2251C64.4295 62.0982 62.9011 61.4651 61.3074 61.4651H54.78Z" fill="#2C2C2C"/>
<path d="M34.6646 96.0171H12.1306V37.4289H34.6646V96.0171ZM14.384 93.7637H32.4112V39.6823H14.384V93.7637Z" fill="#2C2C2C"/>
<path d="M13.6329 65.9719H6.12158V68.2253H13.6329V65.9719Z" fill="#2C2C2C"/>
<path d="M174.45 100.944H174.21C169.647 100.244 165.487 97.9309 162.485 94.4247C159.943 91.4376 156.831 88.9881 153.33 87.2197C149.83 85.4514 146.011 84.3998 142.099 84.1267C137.81 83.7586 134.851 80.9419 134.588 76.9458V74.9854H136.841V76.7881C137.066 79.6875 139.094 81.5803 142.317 81.8507C146.527 82.1511 150.634 83.2883 154.399 85.1959C158.164 87.1035 161.51 89.743 164.242 92.96C166.833 95.946 170.37 97.953 174.262 98.646C176.268 97.8949 189.345 92.4492 188.286 75.1131L190.539 74.9779C191.764 95.1232 174.886 100.817 174.721 100.869L174.45 100.944Z" fill="#2C2C2C"/>
<path d="M78.1628 100.944L77.93 100.869C77.7572 100.817 60.8868 95.1232 62.1112 74.9779L64.3646 75.1131C63.3205 92.2915 76.4728 97.9174 78.3957 98.646C82.2786 97.9447 85.8056 95.9387 88.3932 92.96C91.1273 89.7472 94.4746 87.1118 98.2393 85.2082C102.004 83.3045 106.111 82.1708 110.319 81.8733C113.526 81.6029 115.577 79.71 115.787 76.8107V74.2568H118.04V76.9383C117.755 80.9344 114.803 83.7511 110.529 84.1192C106.617 84.3894 102.797 85.4382 99.2954 87.204C95.7935 88.9697 92.6795 91.417 90.1359 94.4021C87.1312 97.9094 82.9683 100.223 78.4032 100.922L78.1628 100.944Z" fill="#2C2C2C"/>
<path d="M183.276 233.219H181.023C181.023 228.554 181.991 221.636 183.118 213.622C186.04 192.815 190.044 164.31 178.273 159.54C169.898 156.153 155.83 157.79 145.599 160.915L144.27 161.32L144.149 159.931C144.089 159.307 142.85 144.503 147.973 136.045C152.48 128.571 153.005 117.372 153.005 117.267L153.058 116.057L154.26 116.192C156.408 116.44 165.579 116.944 167.78 116.711C193.649 113.984 196.969 102.236 197.991 77.9374L200.244 78.035C199.703 90.8043 198.464 100.096 193.98 106.788C189.277 113.804 181.27 117.552 168.02 118.957C165.887 119.182 158.541 118.821 155.176 118.544C154.921 121.736 153.884 130.644 149.918 137.217C146.042 143.616 146.163 154.493 146.32 158.361C156.123 155.582 170.071 153.794 179.13 157.46C192.537 162.883 188.556 191.193 185.364 213.937C184.26 221.869 183.276 228.712 183.276 233.219Z" fill="#2C2C2C"/>
<path d="M82.3917 229.636C82.0762 221.877 83.7287 215.019 85.1859 208.965C87.1839 200.702 88.9415 193.499 85.0281 186.634L82.7747 182.705L86.583 185.131C97.0988 191.809 125.687 186.972 125.972 186.919H126.168H126.738C127.001 186.987 153.133 193.446 166.045 185.124L170.86 182.014L167.577 186.709C159.923 197.668 163.762 209.16 166.826 218.391C168.261 222.688 169.508 226.398 169.508 229.568H167.254C167.254 226.767 166.068 223.214 164.693 219.105C161.764 210.339 158.181 199.643 163.619 188.902C149.768 194.678 128.436 189.653 126.303 189.142H126.243C124.237 189.48 100.704 193.319 88.3256 188.496C90.7743 195.144 89.1594 201.859 87.3191 209.483C85.8994 215.387 84.3146 222.079 84.5925 229.523L82.3917 229.636Z" fill="#2C2C2C"/>
<path d="M198.381 249.999V247.746C199.517 247.709 200.598 247.251 201.414 246.461C202.231 245.671 202.724 244.605 202.798 243.472C202.793 242.608 202.512 241.769 201.996 241.077C201.479 240.385 200.755 239.876 199.929 239.626C193.018 237.56 187.159 235.735 187.114 235.712C183.712 234.774 180.279 233.985 176.951 233.399C173.624 232.813 170.695 233.399 168.554 235.284C165.692 237.748 164.145 242.42 164.317 248.054L162.064 248.121C161.876 241.684 163.656 236.501 167.074 233.549C169.726 231.258 173.278 230.432 177.342 231.146C180.745 231.754 184.245 232.55 187.753 233.527C187.85 233.527 193.679 235.374 200.575 237.433C201.871 237.819 203.008 238.611 203.82 239.693C204.631 240.775 205.073 242.089 205.081 243.442C205.005 245.181 204.271 246.826 203.027 248.044C201.782 249.262 200.122 249.961 198.381 249.999V249.999Z" fill="#2C2C2C"/>
<path d="M146.704 190.712C145.201 164.017 164.731 155.582 164.964 155.499L165.82 157.58L165.392 156.543L165.827 157.58C165.076 157.895 147.522 165.534 148.957 190.585L146.704 190.712Z" fill="#2C2C2C"/>
<path d="M184.14 65.9719H142.828V68.2253H184.14V65.9719Z" fill="#2C2C2C"/>
<path d="M220.194 65.9719H208.927V68.2253H220.194V65.9719Z" fill="#2C2C2C"/>
<path d="M197.908 75.7366H191.381C189.189 75.7366 187.088 74.8661 185.538 73.3166C183.989 71.767 183.118 69.6655 183.118 67.4741C183.118 65.2828 183.989 63.1812 185.538 61.6317C187.088 60.0822 189.189 59.2117 191.381 59.2117H197.908C200.099 59.2117 202.201 60.0822 203.75 61.6317C205.3 63.1812 206.17 65.2828 206.17 67.4741C206.17 69.6655 205.3 71.767 203.75 73.3166C202.201 74.8661 200.099 75.7366 197.908 75.7366ZM191.381 61.4651C189.787 61.4651 188.258 62.0982 187.132 63.2251C186.005 64.352 185.372 65.8804 185.372 67.4741C185.372 69.0678 186.005 70.5963 187.132 71.7232C188.258 72.8501 189.787 73.4832 191.381 73.4832H197.908C199.502 73.4832 201.03 72.8501 202.157 71.7232C203.284 70.5963 203.917 69.0678 203.917 67.4741C203.917 65.8804 203.284 64.352 202.157 63.2251C201.03 62.0982 199.502 61.4651 197.908 61.4651H191.381Z" fill="#2C2C2C"/>
<path d="M241.226 96.0171H218.692V37.4289H241.226V96.0171ZM220.945 93.7637H238.972V39.6823H220.945V93.7637Z" fill="#2C2C2C"/>
<path d="M246.484 65.9719H240.475V68.2253H246.484V65.9719Z" fill="#2C2C2C"/>
<path d="M125.552 116.245C116.027 116.245 108.276 108.689 108.276 99.3896V83.2478H110.529V99.3896C110.529 107.442 117.289 113.992 125.552 113.992C133.814 113.992 140.574 107.442 140.574 99.3896V83.999H142.828V99.3896C142.828 108.689 135.084 116.245 125.552 116.245Z" fill="#2C2C2C"/>
<path d="M153.073 118.679C148.484 103.04 153.741 86.8683 153.967 86.1923L156.108 86.8984C156.055 87.0636 150.85 103.1 155.236 118.048L153.073 118.679Z" fill="#2C2C2C"/>
<path d="M99.525 118.679L97.3617 118.048C101.756 103.07 96.7909 87.0486 96.7383 86.8834L98.8865 86.2073C99.1043 86.8834 104.107 103.048 99.525 118.679Z" fill="#2C2C2C"/>
<path d="M231.461 38.9311H229.208V92.2614H231.461V38.9311Z" fill="#2C2C2C"/>
<path d="M24.8999 38.9311H22.6465V92.2614H24.8999V38.9311Z" fill="#2C2C2C"/>
<path d="M222.448 247.746H30.158V249.999H222.448V247.746Z" fill="#2C2C2C"/>
<path d="M60.9154 203.146L58.6851 203.467L59.2175 207.162L61.4479 206.841L60.9154 203.146Z" fill="#2C2C2C"/>
<path d="M229.208 210.189H190.9V207.936H226.954V203.429H190.9V201.175H229.208V210.189Z" fill="#37B874"/>
<path d="M184.072 152.615C182.536 151.928 180.945 151.368 179.318 150.94C175.427 149.798 171.393 148.611 169.38 144.585C167.367 140.559 168.283 135.211 171.318 132.567C174.353 129.923 178.161 129.608 182.495 131.816L181.473 133.822C177.988 132.049 175.156 132.192 172.813 134.257C170.469 136.323 169.883 140.544 171.401 143.601C172.918 146.658 176.366 147.748 179.956 148.799C181.703 149.262 183.408 149.868 185.056 150.609L184.072 152.615Z" fill="#37B874"/>
<path d="M231.071 164.716C229.529 164.681 228.04 164.155 226.819 163.213C226.413 162.926 226.067 162.561 225.803 162.14C225.538 161.718 225.36 161.248 225.279 160.757L227.533 160.509C227.647 160.897 227.898 161.231 228.239 161.448C229.132 162.153 230.249 162.513 231.386 162.462C232.088 162.365 232.748 162.072 233.29 161.616C233.833 161.16 234.235 160.561 234.451 159.886L236.584 160.637C236.231 161.717 235.58 162.674 234.705 163.399C233.83 164.123 232.768 164.585 231.641 164.731C231.451 164.738 231.26 164.733 231.071 164.716V164.716Z" fill="#37B874"/>
<path d="M230.635 153.621L229.253 151.841C231.266 150.286 233.759 149.52 236.216 148.777C239.678 147.725 242.976 146.733 244.523 143.579C246.071 140.424 245.395 136.24 243.111 134.235C241.023 132.394 237.598 130.817 233.091 133.739L231.867 131.854C237.876 127.963 242.382 130.622 244.598 132.545C247.603 135.211 248.504 140.612 246.536 144.563C244.568 148.514 240.64 149.768 236.869 150.91C234.533 151.646 232.325 152.322 230.635 153.621Z" fill="#37B874"/>
<path d="M221.388 196.301L213.877 189.157C213.035 188.354 212.364 187.39 211.905 186.321C211.445 185.252 211.207 184.101 211.203 182.938V172.069L212.014 171.829C223.439 168.479 231.731 152.825 231.731 134.618C231.727 132.512 231.609 130.409 231.378 128.316H183.794C183.563 130.409 183.446 132.512 183.441 134.618C183.414 140.717 184.391 146.78 186.333 152.562L184.207 153.313C182.187 147.294 181.172 140.982 181.203 134.633C181.21 132.102 181.37 129.573 181.684 127.061L181.811 126.077H233.369L233.489 127.061C233.808 129.573 233.971 132.101 233.977 134.633C233.977 153.411 225.392 169.65 213.449 173.752V182.953C213.452 183.811 213.628 184.659 213.967 185.446C214.307 186.234 214.803 186.944 215.424 187.535L222.936 194.678L221.388 196.301Z" fill="#37B874"/>
<path d="M193.469 196.105L191.922 194.468L199.433 187.332C200.056 186.737 200.552 186.023 200.891 185.232C201.231 184.44 201.407 183.589 201.408 182.728V173.511C199.198 172.734 197.13 171.6 195.287 170.154L196.661 168.366C198.508 169.821 200.609 170.919 202.858 171.603L203.662 171.844V182.698C203.66 183.865 203.422 185.021 202.961 186.094C202.5 187.166 201.826 188.135 200.98 188.94L193.469 196.105Z" fill="#37B874"/>
<path d="M221.696 137.329H218.692V135.076H221.696V137.329ZM215.687 137.329H212.683V135.076H215.687V137.329ZM209.678 137.329H206.674V135.076H209.678V137.329ZM203.669 137.329H200.665V135.076H203.669V137.329ZM197.66 137.329H194.656V135.076H197.66V137.329ZM191.651 137.329H188.647V135.076H191.651V137.329ZM185.642 137.329H183.389V135.076H185.642V137.329Z" fill="#37B874"/>
<path d="M7.18081 196.473L1.50226 181.12C0.810997 179.26 0.507702 177.279 0.611044 175.297C0.714386 173.315 1.22218 171.376 2.10317 169.598C2.95973 167.836 4.16801 166.267 5.65358 164.99C7.13916 163.712 8.87057 162.752 10.7412 162.169C15.0752 160.81 24.1939 159.916 28.3252 159.916C32.4564 159.916 41.5826 160.825 45.9091 162.169C48.2549 162.901 50.375 164.219 52.0684 166L50.4309 167.555C49.0085 166.056 47.2273 164.944 45.2557 164.325C41.5526 163.161 32.8695 162.162 28.3477 162.162C23.8259 162.162 15.1428 163.161 11.4397 164.325C9.85422 164.832 8.38799 165.656 7.12957 166.745C5.87114 167.835 4.84665 169.169 4.11795 170.665C3.38925 172.162 2.97147 173.791 2.88983 175.454C2.8082 177.116 3.06441 178.778 3.64298 180.339L9.29149 195.7L7.18081 196.473Z" fill="#37B874"/>
<path d="M50.365 187.644L47.4082 195.68L49.523 196.458L52.4798 188.422L50.365 187.644Z" fill="#37B874"/>
<path d="M43.8435 193.649L41.7253 192.898L45.819 181.856C46.3779 180.36 46.5038 178.736 46.1823 177.171C45.8608 175.606 45.1049 174.163 44.0013 173.008C43.0219 171.963 41.7909 171.188 40.4259 170.755C37.7894 169.921 31.6076 169.215 28.4078 169.215C25.208 169.215 19.0036 169.921 16.3897 170.755C15.2807 171.087 14.2528 171.645 13.371 172.395C12.4892 173.145 11.7727 174.07 11.267 175.111C10.7484 176.154 10.4494 177.292 10.3887 178.455C10.328 179.618 10.5068 180.781 10.9139 181.871L14.9701 192.891L12.8519 193.642L8.79575 182.623C8.286 181.249 8.06237 179.785 8.13858 178.322C8.21479 176.858 8.58922 175.426 9.23892 174.112C9.8712 172.808 10.7649 171.647 11.8645 170.703C12.9641 169.758 14.2462 169.05 15.631 168.621C18.7708 167.63 25.3957 166.977 28.3402 166.977C31.2846 166.977 37.9171 167.63 41.0568 168.621C42.447 169.059 43.7335 169.776 44.8378 170.727C45.9421 171.678 46.841 172.845 47.4799 174.155C48.1188 175.465 48.4841 176.891 48.5537 178.347C48.6233 179.803 48.3956 181.258 47.8846 182.623L43.8435 193.649Z" fill="#37B874"/>
<path d="M36.858 239.483H19.8599C15.7606 239.496 11.8219 237.89 8.9009 235.014C4.75466 230.935 0 225.009 0 215.289C0 199.561 12.1082 188.534 29.4519 188.534C45.6237 188.534 56.0795 199.23 56.0795 215.777C56.0795 223.619 53.443 229.621 47.5316 235.247C44.6522 237.981 40.8287 239.499 36.858 239.483V239.483ZM29.4519 190.787C13.4377 190.787 2.25339 200.883 2.25339 215.289C2.25339 222.222 4.79222 227.803 10.5158 233.407C13.0164 235.868 16.3884 237.243 19.8975 237.23H36.858C40.2466 237.252 43.5132 235.966 45.9767 233.639C51.4825 228.381 53.8261 223.078 53.8261 215.808C53.8261 200.627 44.2566 190.787 29.4519 190.787Z" fill="#37B874"/>
<path d="M23.653 222.958L17.3886 215.244V222.958H14.384V207.936H17.3886V214.681L22.6765 207.936H26.1993L20.8663 214.816L27.2434 222.958H23.653Z" fill="#2C2C2C"/>
<path d="M36.8806 222.981C32.1485 222.981 28.7158 219.713 28.7158 215.207C28.7158 210.7 32.2161 207.432 37.0384 207.432C38.5429 207.514 40.0243 207.839 41.425 208.394V211.068C40.1673 210.432 38.778 210.1 37.3689 210.099C34.1315 210.099 31.8706 212.217 31.8706 215.244C31.8315 215.92 31.9338 216.596 32.1709 217.23C32.4081 217.864 32.7748 218.442 33.2477 218.926C33.7205 219.41 34.2892 219.79 34.9173 220.042C35.5454 220.294 36.2192 220.412 36.8956 220.389C37.9243 220.441 38.9388 220.133 39.765 219.518L39.9227 219.39V216.168H37.6693V213.915H42.9272V220.675C41.9207 221.869 39.6298 222.981 36.8806 222.981Z" fill="#2C2C2C"/>
<path d="M22.6466 247.746H15.1353V249.999H22.6466V247.746Z" fill="#2C2C2C"/>
<path d="M77.1113 57.9272C75.1481 57.9484 73.257 57.1892 71.8533 55.8165C71.1591 55.1292 70.6094 54.3099 70.2366 53.407C69.8638 52.504 69.6754 51.5355 69.6826 50.5586C69.6739 49.0937 70.1011 47.6593 70.9099 46.438C71.7188 45.2166 72.8726 44.2634 74.2248 43.6997C75.5769 43.1359 77.0661 42.9872 78.503 43.2723C79.94 43.5574 81.2596 44.2635 82.2941 45.3007C82.9833 45.9849 83.5304 46.7988 83.9037 47.6954C84.277 48.592 84.4692 49.5536 84.4692 50.5248C84.4692 51.496 84.277 52.4576 83.9037 53.3542C83.5304 54.2508 82.9833 55.0647 82.2941 55.7489C80.9109 57.1053 79.0484 57.8611 77.1113 57.8521V57.9272ZM77.1113 45.4584C75.7499 45.4624 74.4454 46.005 73.4827 46.9676C72.5201 47.9303 71.9775 49.2348 71.9735 50.5962C71.9714 51.2702 72.103 51.938 72.3609 52.5608C72.6188 53.1835 72.9977 53.7489 73.4758 54.2241C74.4533 55.1541 75.7508 55.6728 77.1 55.6728C78.4492 55.6728 79.7467 55.1541 80.7242 54.2241C81.2023 53.7494 81.5817 53.1848 81.8406 52.5628C82.0995 51.9408 82.2328 51.2737 82.2328 50.5999C82.2328 49.9262 82.0995 49.2591 81.8406 48.6371C81.5817 48.0151 81.2023 47.4505 80.7242 46.9757C80.2506 46.4965 79.6869 46.1158 79.0656 45.8554C78.4442 45.595 77.7775 45.4601 77.1037 45.4584H77.1113Z" fill="#37B874"/>
<path d="M45.218 60.6764C43.0748 53.9073 43.1418 46.6318 45.4092 39.9033C47.6766 33.1749 52.0268 27.3428 57.8298 23.2515C63.6329 19.1603 70.5875 17.0223 77.6866 17.1472C84.7858 17.2721 91.6609 19.6533 97.3165 23.9461L95.9494 25.7337C90.673 21.7355 84.2615 19.5196 77.6423 19.4065C71.0232 19.2935 64.5396 21.2891 59.1298 25.1048C53.7199 28.9205 49.6642 34.3583 47.5495 40.6316C45.4347 46.9048 45.3706 53.6882 47.3663 60.0004L45.218 60.6764Z" fill="#37B874"/>
<path d="M66.6403 35.3031L65.3484 33.4854C66.2203 32.8833 67.1369 32.3484 68.09 31.8855L69.104 33.906C68.2498 34.311 67.4264 34.7779 66.6403 35.3031V35.3031ZM85.5238 33.8384C84.6714 33.4291 83.7902 33.0827 82.8873 32.8019L83.5483 30.6536C84.5608 30.962 85.5478 31.3488 86.5002 31.8104L85.5238 33.8384ZM71.718 32.862L71.0495 30.7137C72.0577 30.3845 73.0898 30.1334 74.1366 29.9626L74.4746 32.216C73.5412 32.3635 72.6198 32.5794 71.718 32.862V32.862ZM80.1231 32.2085C79.208 32.0732 78.2841 32.0054 77.359 32.0057L77.2989 29.7523H77.3665C78.4046 29.752 79.4414 29.8273 80.4687 29.9776L80.1231 32.2085Z" fill="#37B874"/>
<path d="M56.41 53.2777C56.3115 52.4476 56.2614 51.6124 56.2598 50.7765C56.2598 50.5511 56.2598 50.3333 56.2598 50.108L58.5132 50.1831C58.5132 50.3784 58.5132 50.5812 58.5132 50.7765C58.5127 51.5296 58.5578 52.2822 58.6484 53.0299L56.41 53.2777ZM58.8286 47.3663L56.6128 46.9532C56.8044 45.9124 57.0756 44.8879 57.424 43.8886L59.5572 44.6397C59.2438 45.5283 59.0002 46.4399 58.8286 47.3663V47.3663ZM60.6914 42.0633L58.7009 41.0043C59.1945 40.0635 59.7595 39.162 60.391 38.3077L62.2012 39.6447C61.6368 40.4111 61.132 41.2197 60.6914 42.0633V42.0633Z" fill="#37B874"/>
<path d="M51.3549 25.7713L37.3989 11.8078L38.7059 0L52.6694 13.9635L51.3549 25.7713ZM39.7575 10.9815L49.6349 20.8589L50.3109 14.7898L40.4335 4.9124L39.7575 10.9815Z" fill="#2C2C2C"/>
<path d="M41.1394 25.4859L27.1833 11.5298L38.9911 10.2154L52.9547 24.1789L41.1394 25.4859ZM32.0882 13.2499L41.9731 23.1273L48.0423 22.4513L38.1649 12.5739L32.0882 13.2499Z" fill="#2C2C2C"/>
<path d="M39.372 10.5954L37.7786 12.1888L75.7756 50.1858L77.369 48.5924L39.372 10.5954Z" fill="#2C2C2C"/>
</svg>
