<svg width="75" height="70" viewBox="0 0 75 70" fill="none" xmlns="http://www.w3.org/2000/svg">
<path d="M55.3926 64.4384H10.5479C9.01365 64.4384 7.73511 63.1918 7.73511 61.6256V66.548C7.73511 68.0822 8.98168 69.3607 10.5479 69.3607H55.3926C56.9269 69.3607 58.2054 68.1142 58.2054 66.548V61.6256C58.2054 63.1918 56.9589 64.4384 55.3926 64.4384Z" fill="#7FDCAB"/>
<path d="M58.2056 27.4566C57.854 27.4566 57.5663 27.1689 57.5663 26.8173V7.31961C57.5663 6.13696 56.6074 5.14609 55.3928 5.14609H46.1234C45.7718 5.14609 45.4841 4.85842 45.4841 4.50682C45.4841 4.15522 45.7718 3.86755 46.1234 3.86755H55.3928C57.2787 3.86755 58.8449 5.4018 58.8449 7.31961V26.8173C58.8449 27.1689 58.5572 27.4566 58.2056 27.4566Z" fill="#2C2C2C"/>
<path d="M55.3927 70H10.5799C9.621 70 8.72603 69.6164 8.0548 68.9452C7.38356 68.274 7 67.379 7 66.4201L7.09589 15.5023V7.31961C7.09589 5.43376 8.63014 3.86755 10.5479 3.86755H19.5616C19.9132 3.86755 20.2009 4.15522 20.2009 4.50682C20.2009 4.85842 19.9132 5.14609 19.5616 5.14609H10.5479C9.3653 5.14609 8.37443 6.105 8.37443 7.31961V15.5023L8.27854 66.4201C8.27854 67.0274 8.50228 67.6027 8.94977 68.0502C9.39726 68.4977 9.9726 68.7214 10.5799 68.7214H55.3927C55.7443 68.7214 56.032 69.0091 56.032 69.3607C56.032 69.7123 55.7443 70 55.3927 70Z" fill="#2C2C2C"/>
<path d="M42.2238 65.7808H13.9042C12.4659 65.7808 11.2832 64.5981 11.2832 63.1598V10.8036C11.2832 9.30132 12.4978 8.05475 14.0321 8.05475H51.8768C53.3791 8.05475 54.6257 9.26936 54.6257 10.8036V29.0547C54.6257 29.4063 54.338 29.694 53.9864 29.694C53.6348 29.694 53.3471 29.4063 53.3471 29.0547V10.8036C53.3471 10.0045 52.6759 9.33329 51.8768 9.33329H14.0321C13.233 9.33329 12.5617 10.0045 12.5617 10.8036V63.1598C12.5617 63.8949 13.169 64.5022 13.9042 64.5022H42.2238C42.5754 64.5022 42.8631 64.7899 42.8631 65.1415C42.8631 65.4931 42.5754 65.7808 42.2238 65.7808Z" fill="#2C2C2C"/>
<path d="M19.7214 28.0639L17.4201 25.7625C17.1643 25.5068 17.1643 25.1233 17.4201 24.8676C17.6758 24.6119 18.0593 24.6119 18.315 24.8676L19.7214 26.274L24.0045 21.9909C24.2602 21.7351 24.6438 21.7351 24.8995 21.9909C25.1552 22.2466 25.1552 22.6301 24.8995 22.8858L19.7214 28.0639Z" fill="#169753"/>
<path d="M19.7214 41.7443L17.4201 39.443C17.1643 39.1873 17.1643 38.8037 17.4201 38.548C17.6758 38.2923 18.0593 38.2923 18.315 38.548L19.7214 39.9544L24.0045 35.6713C24.2602 35.4156 24.6438 35.4156 24.8995 35.6713C25.1552 35.927 25.1552 36.3105 24.8995 36.5662L19.7214 41.7443Z" fill="#169753"/>
<path d="M19.7214 54.5297L17.4201 52.2283C17.1643 51.9726 17.1643 51.589 17.4201 51.3333C17.6758 51.0776 18.0593 51.0776 18.315 51.3333L19.7214 52.7397L24.0045 48.4566C24.2602 48.2009 24.6438 48.2009 24.8995 48.4566C25.1552 48.7123 25.1552 49.0959 24.8995 49.3516L19.7214 54.5297Z" fill="#169753"/>
<path d="M40.7854 4.50686H36.8538C36.8538 2.36531 35.1278 0.639282 32.9863 0.639282C30.8447 0.639282 29.1187 2.36531 29.1187 4.50686H25.1872C23.3013 4.50686 21.7671 6.04111 21.7671 7.92695V12.2101C21.7671 12.5936 22.0867 12.9133 22.4703 12.9133H43.5023C43.8858 12.9133 44.2054 12.5936 44.2054 12.2101V7.92695C44.1735 6.04111 42.6712 4.50686 40.7854 4.50686Z" fill="#37B874"/>
<path d="M43.5023 10.452H22.4703C22.0867 10.452 21.7671 10.1324 21.7671 9.74884V12.21C21.7671 12.5936 22.0867 12.9132 22.4703 12.9132H43.5023C43.8858 12.9132 44.2054 12.5936 44.2054 12.21V9.74884C44.1735 10.1324 43.8858 10.452 43.5023 10.452Z" fill="#169753"/>
<path d="M43.5021 13.5525H22.4702C21.735 13.5525 21.1277 12.9452 21.1277 12.21V7.92694C21.1277 5.6895 22.9496 3.86758 25.187 3.86758H28.5432C28.8628 1.69406 30.7167 0 32.9861 0C35.2555 0 37.1094 1.69406 37.4291 3.86758H40.7852C43.0227 3.86758 44.8446 5.6895 44.8446 7.92694V12.21C44.8126 12.9452 44.2373 13.5525 43.5021 13.5525ZM25.187 5.14612C23.6528 5.14612 22.4062 6.39269 22.4062 7.92694V12.21C22.4062 12.242 22.4382 12.274 22.4702 12.274H43.5021C43.5341 12.274 43.566 12.242 43.566 12.21V7.92694C43.566 6.39269 42.3195 5.14612 40.7852 5.14612H36.2144V4.50685C36.2144 2.74886 34.7761 1.27854 32.9861 1.27854C31.2281 1.27854 29.7578 2.71689 29.7578 4.50685V5.14612H25.187V5.14612Z" fill="#2C2C2C"/>
<path d="M33.3059 4.44291H32.9543C32.6027 4.44291 32.3151 4.15524 32.3151 3.80364C32.3151 3.45204 32.6027 3.16437 32.9543 3.16437H33.3059C33.6575 3.16437 33.9452 3.45204 33.9452 3.80364C33.9452 4.15524 33.6895 4.44291 33.3059 4.44291Z" fill="#2C2C2C"/>
<path d="M36.9816 23.9726H29.3104C28.9588 23.9726 28.6711 23.6849 28.6711 23.3333C28.6711 22.9817 28.9588 22.6941 29.3104 22.6941H36.9816C37.3332 22.6941 37.6209 22.9817 37.6209 23.3333C37.6209 23.6849 37.3332 23.9726 36.9816 23.9726Z" fill="#2C2C2C"/>
<path d="M49.3196 23.9726H39.6346C39.283 23.9726 38.9954 23.6849 38.9954 23.3333C38.9954 22.9817 39.283 22.6941 39.6346 22.6941H49.3196C49.6712 22.6941 49.9588 22.9817 49.9588 23.3333C49.9588 23.6849 49.6712 23.9726 49.3196 23.9726Z" fill="#2C2C2C"/>
<path d="M43.3424 27.9681H29.3424C28.9908 27.9681 28.7031 27.6804 28.7031 27.3288C28.7031 26.9772 28.9908 26.6895 29.3424 26.6895H43.3424C43.694 26.6895 43.9817 26.9772 43.9817 27.3288C43.9817 27.6804 43.694 27.9681 43.3424 27.9681Z" fill="#2C2C2C"/>
<path d="M36.9816 36.9817H29.3104C28.9588 36.9817 28.6711 36.6941 28.6711 36.3425C28.6711 35.9909 28.9588 35.7032 29.3104 35.7032H36.9816C37.3332 35.7032 37.6209 35.9909 37.6209 36.3425C37.6209 36.6941 37.3332 36.9817 36.9816 36.9817Z" fill="#2C2C2C"/>
<path d="M49.4795 36.9817H39.6667C39.3151 36.9817 39.0275 36.6941 39.0275 36.3425C39.0275 35.9909 39.3151 35.7032 39.6667 35.7032H49.4795C49.8311 35.7032 50.1188 35.9909 50.1188 36.3425C50.1188 36.6941 49.8311 36.9817 49.4795 36.9817Z" fill="#2C2C2C"/>
<path d="M41.4885 40.9771H29.3104C28.9588 40.9771 28.6711 40.6895 28.6711 40.3379C28.6711 39.9863 28.9588 39.6986 29.3104 39.6986H41.4885C41.8401 39.6986 42.1278 39.9863 42.1278 40.3379C42.1278 40.6895 41.8401 40.9771 41.4885 40.9771Z" fill="#2C2C2C"/>
<path d="M36.9816 49.9909H29.3104C28.9588 49.9909 28.6711 49.7032 28.6711 49.3516C28.6711 49 28.9588 48.7123 29.3104 48.7123H36.9816C37.3332 48.7123 37.6209 49 37.6209 49.3516C37.6209 49.7032 37.3332 49.9909 36.9816 49.9909Z" fill="#2C2C2C"/>
<path d="M38.6757 53.9863H29.3424C28.9908 53.9863 28.7031 53.6986 28.7031 53.347C28.7031 52.9954 28.9908 52.7078 29.3424 52.7078H38.6757C39.0273 52.7078 39.315 52.9954 39.315 53.347C39.315 53.6986 39.0273 53.9863 38.6757 53.9863Z" fill="#2C2C2C"/>
<path d="M67.8585 28.7672C67.2831 30.653 65.9703 31.9772 64.5 33C61.8151 34.8539 58.3334 36.0548 56.927 34.0092C56.8311 33.8813 56.7672 33.7535 56.7032 33.6256C56.6073 34.3927 56.7032 35.0959 57.0548 35.7352C58.2694 37.8767 61.9452 38.1005 64.6941 36.5662C67.443 35.032 68.8813 29.0548 68.8813 29.0548C68.8813 29.0548 68.4977 28.927 67.8585 28.7672Z" fill="#7FDCAB"/>
<path d="M57.8858 45.3562C57.8538 45.3562 57.8538 45.3562 57.8219 45.3562C57.4703 45.3242 57.2146 45.0046 57.2465 44.653C57.2465 44.5891 58.0456 37.0777 55.073 33.4658C54.1461 32.3471 52.9954 31.7398 51.5251 31.5799C51.1735 31.548 50.9178 31.2283 50.9497 30.8767C50.9817 30.5251 51.3013 30.2694 51.6529 30.3014C53.4429 30.4612 54.9451 31.2603 56.0958 32.6347C59.3881 36.6621 58.589 44.4293 58.557 44.7809C58.4611 45.1325 58.2054 45.3562 57.8858 45.3562Z" fill="#2C2C2C"/>
<path d="M73.3881 51.4292C73.3881 55.9681 68.7534 65.5251 65.7169 68.4019C62.8721 71.0868 59.8676 68.4019 57.8858 68.4019C55.5845 68.4019 53.0274 71.1188 50.1826 68.4019C47.1142 65.4932 41.5845 55.9681 41.5845 51.4292C41.5845 47.306 43.1507 43.5662 45.7397 40.7215C48.6484 37.5251 52.8356 40.9452 57.5023 40.9452C62.1689 40.9452 66.3242 37.5251 69.2329 40.6895C71.79 43.5343 73.3881 47.274 73.3881 51.4292Z" fill="#37B874"/>
<path d="M57.7899 66.0045C54.8813 66.0045 51.7169 69.0411 48.137 66.0045C48.8721 66.9954 49.5753 67.8265 50.1826 68.4018C53.0274 71.0867 55.5525 68.4018 57.8858 68.4018C59.8676 68.4018 62.8721 71.1187 65.7169 68.4018C66.3242 67.8265 66.9634 66.9954 67.6347 66.0365C64.0548 69.0411 60.2831 66.0045 57.7899 66.0045Z" fill="#169753"/>
<path d="M60.8904 38.1964C60.6667 38.1964 60.4429 38.1964 60.2192 38.1644C58.4932 38.0046 57.1507 37.2375 56.4795 36.0548C55.0091 33.4338 57.1187 29.822 59.9635 28.2238C62.9041 26.5617 68.8174 28.3836 69.0731 28.4475L69.6484 28.6393L69.5206 29.2147C69.4566 29.4704 67.9544 35.4795 65.0137 37.1416C63.7352 37.8128 62.2968 38.1964 60.8904 38.1964ZM63.2877 28.7672C62.2329 28.7672 61.274 28.895 60.5708 29.3106C58.0137 30.7489 56.5754 33.6576 57.5662 35.4156C58.0457 36.2466 59.0046 36.758 60.3151 36.8859C61.6575 37.0137 63.0959 36.6941 64.3425 35.9909C66.1644 34.9681 67.5388 31.3562 68.0822 29.4704C66.9315 29.1507 65.0137 28.7672 63.2877 28.7672Z" fill="#2C2C2C"/>
<path d="M46.315 56.5114C45.6437 56.5114 45.0364 56.0959 44.8127 55.4566C42.3515 48.5525 46.7944 43.5982 46.9862 43.4064C47.5935 42.7671 48.5844 42.7032 49.2556 43.3105C49.8949 43.9178 49.9588 44.9087 49.3515 45.5479C49.1917 45.7078 46.0273 49.3196 47.8492 54.3699C48.1369 55.2009 47.7214 56.1279 46.8903 56.4155C46.6985 56.4795 46.5068 56.5114 46.315 56.5114Z" fill="white"/>
<path d="M74.347 70H0.639269C0.287671 70 0 69.7123 0 69.3607C0 69.0091 0.287671 68.7214 0.639269 68.7214H74.347C74.6986 68.7214 74.9863 69.0091 74.9863 69.3607C74.9863 69.7123 74.6986 70 74.347 70Z" fill="#2C2C2C"/>
</svg>
